<svg width="32" height="32" viewBox="0 0 32 32" fill="none" xmlns="http://www.w3.org/2000/svg">
<path d="M12 26.6667H20V29.3334H12V26.6667ZM22.5413 18.2827C23.9146 16.6747 25.3333 15.0121 25.3333 12.0001C25.3333 6.85475 21.1453 2.66675 16 2.66675C10.8546 2.66675 6.66663 6.85475 6.66663 12.0001C6.66663 15.0467 8.08929 16.7041 9.46796 18.3067C9.94529 18.8641 10.44 19.4414 10.9133 20.1054C11.1053 20.3801 11.42 21.4334 11.7013 22.6667L12 25.3334C15.5555 25.3334 16.4444 25.3334 20 25.3334L20.3013 22.6667C20.5853 21.4307 20.9013 20.3747 21.092 20.1001C21.5613 19.4294 22.06 18.8467 22.5413 18.2827ZM18.9093 18.5667C18.3306 19.3894 17.848 21.3334 17.568 22.6667H14.4333C14.1546 21.3307 13.6706 19.3827 13.0853 18.5601C12.5426 17.7974 11.984 17.1454 11.4906 16.5707C10.192 15.0587 9.33329 14.0587 9.33329 12.0001C9.33329 8.32408 12.324 5.33341 16 5.33341C19.676 5.33341 22.6666 8.32408 22.6666 12.0001C22.6666 14.0281 21.8093 15.0321 20.5133 16.5507C20.016 17.1347 19.452 17.7947 18.9093 18.5667Z" fill="white"/>
</svg>
