<svg width="81" height="16" viewBox="0 0 81 16" fill="none" xmlns="http://www.w3.org/2000/svg">
<path fill-rule="evenodd" clip-rule="evenodd" d="M52.16 0.710432C49.5252 0.00963191 45.882 0.512832 42.1428 2.03963C37.3732 3.98803 33.8752 7.87643 33.8752 7.87643C35.2392 6.62563 36.8308 5.48803 38.5724 4.52803C40.8824 3.24643 43.3456 2.34443 45.6928 1.91403C47.9712 1.49403 50.0908 1.52643 51.82 2.00923C53.5864 2.49563 54.8824 3.45563 55.6292 4.75203C56.4088 6.10403 56.2104 7.87643 56.2104 7.87643C56.5304 6.18763 56.3616 5.38603 56.3616 5.38603C56.05 2.97563 54.5996 1.35923 52.16 0.710432ZM56.2127 13.6085L59.8875 7.87646H61.5675V15.3541H59.8967V10.9277L57.0631 15.3541H55.4543L52.5919 10.9161V15.3541H50.9295V7.87646H52.5863L56.2127 13.6085ZM71.6707 9.55743C68.8419 9.55743 68.2099 10.8874 68.2099 12.5086C68.2099 14.149 68.8287 15.4782 71.8095 15.4782C72.8983 15.4782 73.9163 15.275 74.1491 15.2274L74.1505 15.2183C74.1951 14.9243 74.2894 14.3024 74.3227 14.0878C74.2953 14.0909 74.2342 14.1005 74.1464 14.1143L74.1463 14.1143C73.7251 14.1804 72.6891 14.343 71.8095 14.343C70.4239 14.343 70.0543 13.8146 69.9407 13.0818H74.7271V12.5086C74.7271 10.4638 73.6347 9.55743 71.6707 9.55743ZM71.6707 10.6902C70.3575 10.6902 70.0379 11.231 69.9407 11.9322H73.0355C72.9803 11.3106 72.6359 10.6902 71.6707 10.6902ZM67.3743 14.4549V7.87647H65.7119V14.4549C65.7119 14.8545 65.8519 15.2613 65.8871 15.3593H67.5515C67.5471 15.3421 67.5387 15.3156 67.5278 15.2813C67.4775 15.123 67.3743 14.7987 67.3743 14.4549ZM80.4016 11.1389V9.84687C80.0432 9.74167 79.6732 9.66407 79.296 9.60887C78.9096 9.55727 78.528 9.53167 78.1452 9.53167C77.2916 9.53167 76.632 9.68647 76.1576 9.99287C75.6864 10.2889 75.4532 10.7105 75.4532 11.2589C75.4532 11.7169 75.6112 12.0773 75.9184 12.3529C76.2268 12.6241 76.7204 12.8273 77.3952 12.9493L77.8864 13.0437C78.4512 13.1605 78.8144 13.2601 78.9656 13.3637C79.1144 13.4689 79.1924 13.6137 79.1924 13.7981C79.1924 13.9937 79.0824 14.1401 78.872 14.2445C78.6572 14.3445 78.3424 14.3997 77.9316 14.3997C77.5504 14.3997 77.1592 14.3485 76.7552 14.2473C76.35 14.1489 75.9524 14.0085 75.5636 13.8173V15.1193C75.9992 15.2401 76.4348 15.3237 76.8588 15.3849C77.2856 15.4429 77.7064 15.4717 78.112 15.4717C79.0312 15.4717 79.72 15.3261 80.1732 15.0341C80.6316 14.7453 80.8584 14.3045 80.8584 13.7181C80.8584 13.2373 80.712 12.8533 80.41 12.5657C80.112 12.2829 79.6404 12.0757 78.9944 11.9453L78.4816 11.8497L78.4168 11.8349C77.5572 11.6649 77.1264 11.4473 77.1264 11.1793C77.1264 10.9881 77.2272 10.8453 77.4244 10.7505C77.63 10.6549 77.9316 10.6053 78.3212 10.6053C78.6744 10.6053 79.0312 10.6517 79.3864 10.7401C79.7376 10.8281 80.0776 10.9629 80.4016 11.1389ZM63.6352 9.21559C63.9944 9.21559 64.2392 9.16679 64.3748 9.06959C64.5048 8.97039 64.5764 8.79359 64.5764 8.53399C64.5764 8.28719 64.5076 8.10919 64.382 8.01199C64.2496 7.91519 64.0076 7.86319 63.65 7.86319C63.2832 7.86319 63.0352 7.91639 62.9056 8.01839C62.776 8.11919 62.71 8.29879 62.71 8.55919C62.71 8.81039 62.7716 8.97879 62.8968 9.07279C63.0252 9.16679 63.2684 9.21559 63.6352 9.21559ZM64.4676 9.65319V14.4548C64.4676 14.7987 64.5741 15.1336 64.6244 15.2916C64.6335 15.3203 64.6408 15.3432 64.6452 15.3592H62.9888C62.9648 15.3028 62.8092 14.8776 62.8092 14.4548V9.65319H64.4676Z" fill="#CB9938"/>
<path fill-rule="evenodd" clip-rule="evenodd" d="M4.72758 7.64209C6.67798 7.64049 7.89038 8.25809 8.56238 9.22809L6.82038 9.90409C6.44318 9.36929 5.81278 9.01929 4.74958 9.01329H4.70518C3.66438 9.01809 3.04118 9.34729 2.65798 9.85929C2.32798 10.3033 2.14478 10.8769 2.14478 11.5253V11.6317H2.14278C2.15078 12.2517 2.33598 12.8489 2.65798 13.2813C3.04118 13.7885 3.66438 14.1233 4.70518 14.1273H4.74958C5.79278 14.1233 6.42198 13.7813 6.80078 13.2657L8.56238 13.9393C7.88758 14.8981 6.66038 15.4833 4.73598 15.4833H4.72758C3.01478 15.4833 1.86758 15.0325 1.16318 14.2521C0.520781 13.5533 0.196381 12.6221 0.199981 11.5953V11.5253C0.196381 10.5169 0.521581 9.58449 1.16158 8.88969C1.86638 8.11409 3.01438 7.64049 4.72758 7.64209ZM20.1908 9.54072C18.944 9.54072 18.3396 10.1987 18.3396 10.1987L18.2348 9.65552H16.5504C16.6164 9.85912 16.7292 10.2355 16.7292 10.5691V15.3595H18.3928V12.0391C18.3928 11.1467 18.944 10.6863 20.1908 10.6863C20.8752 10.6863 21.2948 10.9135 21.2948 12.0391V15.3595H22.9544V12.0391C22.9544 10.3419 22.408 9.54072 20.1908 9.54072ZM43.5836 13.7138C43.3224 14.1226 42.8492 14.3514 42.0548 14.3514C40.6632 14.3514 40.2504 13.6602 40.2504 12.515C40.2504 11.3886 40.6632 10.6994 42.0548 10.6994C42.7928 10.6994 43.2552 10.8998 43.5248 11.253L44.9784 10.6986C44.3928 9.9198 43.3624 9.5534 42.0548 9.5534C39.9756 9.5534 38.5892 10.4682 38.5892 12.515C38.5892 14.5822 39.9756 15.4834 42.0548 15.4834C43.3968 15.4834 44.4444 15.105 45.0212 14.2798L43.5836 13.7138ZM25.8085 10.1987C25.8085 10.1987 26.4141 9.54072 27.6621 9.54072C29.8809 9.54072 30.4257 10.3419 30.4257 12.0391V15.3595H28.7673V12.0391C28.7673 10.9135 28.3481 10.6863 27.6621 10.6863C26.4141 10.6863 25.8657 11.1467 25.8657 12.0391V15.3595H24.1997V10.5691C24.1997 10.2355 24.0873 9.85912 24.0213 9.65552H25.7061L25.8085 10.1987ZM34.7085 9.54984C31.8781 9.54984 31.2493 10.8746 31.2493 12.4974C31.2493 14.1382 31.8669 15.4678 34.8453 15.4678C35.9361 15.4678 36.9537 15.263 37.1857 15.2158C37.2305 14.927 37.3265 14.2954 37.3581 14.0786C37.3297 14.0816 37.2641 14.0918 37.1694 14.1066L37.1693 14.1066C36.7409 14.1734 35.717 14.333 34.8453 14.333C33.4617 14.333 33.0889 13.803 32.9781 13.0726H37.7661V12.4974C37.7661 10.4526 36.6721 9.54984 34.7085 9.54984ZM34.7085 10.681C33.3945 10.681 33.0757 11.2194 32.9781 11.9202H36.0713C36.0161 11.297 35.6729 10.681 34.7085 10.681ZM12.4435 9.55448C10.3643 9.55448 8.97993 10.4681 8.97993 12.5149C8.97993 14.5821 10.3643 15.4833 12.4435 15.4833C14.5187 15.4833 15.9007 14.5821 15.9007 12.5149C15.9007 10.4681 14.5187 9.55448 12.4435 9.55448ZM10.6399 12.5149C10.6399 13.6601 11.0507 14.3513 12.4435 14.3513C13.8279 14.3513 14.2411 13.6601 14.2411 12.5149C14.2411 11.3885 13.8279 10.6993 12.4435 10.6993C11.0507 10.6993 10.6399 11.3885 10.6399 12.5149ZM46.6848 7.87761V9.64481H45.4556V10.8648H46.6848V13.3176C46.6848 14.6472 46.9908 15.3904 48.4176 15.3904C48.674 15.3904 49.4732 15.3056 49.6804 15.2084V14.134C49.6188 14.1382 49.5575 14.1435 49.4961 14.1487C49.363 14.1602 49.2301 14.1716 49.0956 14.1716C48.4624 14.1716 48.3412 13.9524 48.3412 13.1468V10.8648H49.8132V9.64481H48.3412V7.87761H46.6848Z" fill="white"/>
</svg>
