<svg viewBox="0 0 16 16" xmlns="http://www.w3.org/2000/svg">
<path d="M4.97613 2.19738C4.96268 2.19809 4.94922 2.19935 4.93595 2.20141C4.84081 2.21244 4.7531 2.25836 4.68996 2.33037C4.62683 2.40247 4.59284 2.49538 4.59445 2.59114V3.23396H3.56593C3.07404 3.23396 2.66602 3.64198 2.66602 4.13387V12.8761C2.66602 13.368 3.07404 13.776 3.56593 13.776H8.32275C8.68568 13.776 9.02249 13.6731 9.31906 13.5068C9.32274 13.5048 9.32758 13.5048 9.33117 13.5029C9.3682 13.4921 9.40336 13.4758 9.43564 13.4546L12.5211 11.3976C12.6289 11.3262 12.6939 11.2055 12.6939 11.0762V4.13379C12.6939 3.6419 12.2858 3.23388 11.7939 3.23388H10.7654V2.59106C10.7673 2.47995 10.7212 2.37341 10.6389 2.29872C10.5565 2.22411 10.446 2.1886 10.3356 2.20133C10.2404 2.21236 10.1527 2.25828 10.0896 2.33029C10.0266 2.40239 9.99248 2.4953 9.9941 2.59106V3.23388H5.36584V2.59106C5.368 2.48668 5.32782 2.38588 5.25437 2.31172C5.18093 2.23746 5.08058 2.19621 4.9762 2.19729L4.97613 2.19738ZM3.56594 4.00529H4.59446V4.391C4.59293 4.49422 4.63293 4.59376 4.70548 4.66729C4.77794 4.74083 4.87685 4.78217 4.98008 4.78217C5.08338 4.78217 5.1823 4.74083 5.25476 4.66729C5.32731 4.59376 5.36722 4.49421 5.36578 4.391V4.00529H9.99404V4.391C9.9926 4.49422 10.0325 4.59376 10.1051 4.66729C10.1775 4.74083 10.2764 4.78217 10.3797 4.78217C10.483 4.78217 10.5819 4.74083 10.6543 4.66729C10.7269 4.59376 10.7669 4.49421 10.7654 4.391V4.00529H11.7939C11.8718 4.00529 11.9225 4.05595 11.9225 4.13389V5.80522H3.43735V4.13389C3.43735 4.05596 3.48802 4.00529 3.56595 4.00529H3.56594ZM3.43734 6.57654H11.9225V10.4334H9.99403C9.8917 10.4335 9.7936 10.4741 9.72131 10.5464C9.64894 10.6188 9.60832 10.7169 9.60832 10.8191V11.719C9.60832 12.438 9.04163 13.0047 8.32269 13.0047H3.56588C3.48795 13.0047 3.43728 12.954 3.43728 12.8762L3.43734 6.57654ZM10.3797 11.2048H11.4202L10.3596 11.9119C10.3657 11.8474 10.3797 11.7851 10.3797 11.719V11.2048Z"/>
</svg>
