<svg width="32" height="32" viewBox="0 0 32 32" fill="none" xmlns="http://www.w3.org/2000/svg">
<path d="M16.45 14.35C13.0875 13.4625 12 12.55 12 11.1125C12 9.475 13.5 8.3375 16.0125 8.3375C18.125 8.3375 19.175 9.15 19.5625 10.4375C19.7125 11.0375 20.2375 11.4625 20.85 11.4875H21.3C22.0875 11.4875 22.725 10.85 22.725 10.0625C22.725 9.9 22.7 9.7375 22.6375 9.575C21.9375 7.625 20.275 6.175 18.2375 5.7625V4.725C18.2375 3.5 17.2375 2.5 16.0125 2.5C14.7875 2.5 13.7875 3.5 13.7875 4.725V5.7125C10.9125 6.3375 8.58752 8.2375 8.58752 11.1375C8.58752 14.6125 11.425 16.3375 15.5625 17.35C19.275 18.25 20.0125 19.575 20.0125 20.975C20.0125 22.0125 19.2875 23.6625 16 23.6625C13.55 23.6625 12.2875 22.775 11.8 21.5125C11.6125 20.925 11.075 20.525 10.4625 20.5H10.05C9.25002 20.5125 8.62502 21.1625 8.62502 21.95C8.62502 22.125 8.66253 22.3 8.72503 22.4625C9.57503 24.55 11.55 25.7875 13.775 26.2625V27.275C13.775 28.5 14.775 29.5 16 29.5C17.225 29.5 18.225 28.5 18.225 27.275V26.3C21.125 25.75 23.425 24.05 23.425 20.9625C23.425 16.6875 19.8125 15.2375 16.45 14.35Z" fill="white"/>
</svg>
