<svg width="32" height="32" viewBox="0 0 32 32" fill="none" xmlns="http://www.w3.org/2000/svg">
<path fill-rule="evenodd" clip-rule="evenodd" d="M16.7348 3.38286C15.9586 3.32316 15.1951 3.6056 14.6446 4.15606L4.19817 14.6025C3.15677 15.6439 3.15677 17.3323 4.19817 18.3737L13.6263 27.8018C14.6677 28.8432 16.3561 28.8432 17.3975 27.8018L27.8439 17.3554C28.3944 16.8049 28.6768 16.0414 28.6171 15.2652L27.9437 6.51059C27.8428 5.19918 26.8008 4.15718 25.4894 4.0563L16.7348 3.38286ZM19.2831 12.7169C20.3245 13.7583 22.013 13.7583 23.0543 12.7169C24.0957 11.6755 24.0957 9.98705 23.0543 8.94565C22.013 7.90425 20.3245 7.90425 19.2831 8.94565C18.2417 9.98705 18.2417 11.6755 19.2831 12.7169Z" fill="white"/>
</svg>
