<svg viewBox="0 0 72 72" xmlns="http://www.w3.org/2000/svg">
<path d="M30.4531 45.0877L30.1741 43.7905C30.1292 43.5818 30.056 43.3808 29.9571 43.1928C26.974 41.2282 25 37.8453 25 34C25 27.9249 29.9249 23 36 23C42.0751 23 47 27.9249 47 34C47 38.0043 44.8598 41.5066 41.6675 43.4292C41.6018 43.5719 41.5515 43.7218 41.518 43.8765L41.1071 45H39.5357L39.9822 43.5437C40.08 43.0921 40.2606 42.6639 40.5135 42.2801C43.4421 40.6803 45.4286 37.5722 45.4286 34C45.4286 28.7927 41.2073 24.5714 36 24.5714C30.7927 24.5714 26.5714 28.7927 26.5714 34C26.5714 37.4148 28.3868 40.4057 31.1051 42.06C31.3965 42.4822 31.6023 42.9578 31.7103 43.46L31.9894 44.7572L32.0714 45.0877H30.4531Z"/>
<path fill-rule="evenodd" clip-rule="evenodd" d="M39.7356 48.1417H32.1088C31.29 48.1417 30.7237 48.9602 31.0125 49.7264C31.3472 50.6149 31.5511 51.5473 31.6178 52.4944L31.7654 54.5929C31.8523 55.8274 32.8791 56.7846 34.1167 56.7846H38.003C39.2112 56.7846 40.2237 55.8711 40.3477 54.6692L40.6015 52.2078C40.6791 51.4548 40.8379 50.7124 41.0749 49.9935C41.3757 49.0812 40.6962 48.1417 39.7356 48.1417ZM32.1088 46.5703C30.1918 46.5703 28.866 48.4866 29.542 50.2805C29.8231 51.0265 29.9943 51.8094 30.0502 52.6047L30.1978 54.7032C30.3426 56.7608 32.054 58.356 34.1167 58.356H38.003C40.0166 58.356 41.7043 56.8335 41.9108 54.8304L42.1646 52.369C42.2307 51.7285 42.3657 51.0971 42.5673 50.4856C43.2033 48.5567 41.7666 46.5703 39.7356 46.5703H32.1088Z"/>
<path fill-rule="evenodd" clip-rule="evenodd" d="M49.2932 24.293C48.9027 23.9025 48.9027 23.2694 49.2932 22.8788L51.879 20.293C52.2695 19.9025 52.9027 19.9025 53.2932 20.293C53.6837 20.6836 53.6837 21.3167 53.2932 21.7073L50.7074 24.293C50.3169 24.6836 49.6837 24.6836 49.2932 24.293Z"/>
<path fill-rule="evenodd" clip-rule="evenodd" d="M22.7071 24.293C23.0976 23.9025 23.0976 23.2694 22.7071 22.8788L20.1213 20.293C19.7308 19.9025 19.0976 19.9025 18.7071 20.293C18.3166 20.6836 18.3166 21.3167 18.7071 21.7073L21.2929 24.293C21.6834 24.6836 22.3166 24.6836 22.7071 24.293Z"/>
<path fill-rule="evenodd" clip-rule="evenodd" d="M36 19C35.4477 19 35 18.4627 35 17.8V14.2C35 13.5373 35.4477 13 36 13C36.5523 13 37 13.5373 37 14.2V17.8C37 18.4627 36.5523 19 36 19Z"/>
</svg>
