<svg viewBox="0 0 72 72" xmlns="http://www.w3.org/2000/svg">
<path fill-rule="evenodd" clip-rule="evenodd" d="M40.551 42.2588C43.4585 40.6529 45.4276 37.5563 45.4276 33.9999C45.4276 28.7926 41.2063 24.5713 35.999 24.5713C30.7918 24.5713 26.5705 28.7926 26.5705 33.9999C26.5705 37.4035 28.374 40.3859 31.0775 42.0436C31.3819 42.5417 31.5609 43.108 31.5967 43.6938L31.6765 44.9997H35.9979H39.9265L40.0626 43.7107C40.117 43.1946 40.2847 42.6992 40.551 42.2588Z" fill="white"/>
<path d="M30.4533 45.0877L30.1742 43.7905C30.1293 43.5818 30.0562 43.3808 29.9573 43.1928C26.9741 41.2282 25.0002 37.8453 25.0002 34C25.0002 27.9249 29.925 23 36.0002 23C42.0753 23 47.0002 27.9249 47.0002 34C47.0002 38.0043 44.86 41.5066 41.6677 43.4292C41.6019 43.5719 41.5517 43.7218 41.5181 43.8765L41.1073 45H39.5359L39.9823 43.5437C40.0802 43.0921 40.2608 42.6639 40.5137 42.2801C43.4422 40.6803 45.4287 37.5722 45.4287 34C45.4287 28.7927 41.2074 24.5714 36.0002 24.5714C30.7929 24.5714 26.5716 28.7927 26.5716 34C26.5716 37.4148 28.387 40.4057 31.1053 42.06C31.3967 42.4822 31.6024 42.9578 31.7105 43.46L31.9896 44.7572L32.0716 45.0877H30.4533Z" fill="#0032A0"/>
<path d="M29.5421 50.2815C28.8661 48.4876 30.1919 46.5713 32.1089 46.5713H39.7358C41.7668 46.5713 43.2034 48.5577 42.5674 50.4866L-nan -nanL42.5674 50.4866C42.3658 51.098 42.2308 51.7295 42.1648 52.37L41.911 54.8314C41.7044 56.8344 40.0168 58.357 38.0031 58.357H36.0012H34.1169C32.0542 58.357 30.3428 56.7617 30.198 54.7041L30.0504 52.6056C29.9944 51.8104 29.8232 51.0275 29.5421 50.2815L-nan -nanL29.5421 50.2815Z" fill="#00A3E0"/>
<path fill-rule="evenodd" clip-rule="evenodd" d="M39.7358 48.1427H32.1089C31.2901 48.1427 30.7239 48.9612 31.0126 49.7274C31.3474 50.6159 31.5513 51.5483 31.6179 52.4954L31.7656 54.5939C31.8524 55.8284 32.8793 56.7856 34.1169 56.7856H38.0031C39.2113 56.7856 40.2239 55.872 40.3478 54.6702L40.6016 52.2088C40.6793 51.4558 40.838 50.7134 41.075 49.9945C41.3758 49.0822 40.6964 48.1427 39.7358 48.1427ZM32.1089 46.5713C30.1919 46.5713 28.8661 48.4876 29.5421 50.2815C29.8232 51.0275 29.9944 51.8104 30.0504 52.6056L30.198 54.7041C30.3428 56.7617 32.0542 58.357 34.1169 58.357H38.0031C40.0168 58.357 41.7044 56.8344 41.911 54.8314L42.1648 52.37C42.2308 51.7295 42.3658 51.098 42.5674 50.4866C43.2034 48.5577 41.7668 46.5713 39.7358 46.5713H32.1089Z" fill="#0032A0"/>
<path fill-rule="evenodd" clip-rule="evenodd" d="M49.2932 24.293C48.9027 23.9025 48.9027 23.2694 49.2932 22.8788L51.879 20.293C52.2695 19.9025 52.9027 19.9025 53.2932 20.293C53.6837 20.6836 53.6837 21.3167 53.2932 21.7073L50.7074 24.293C50.3169 24.6836 49.6837 24.6836 49.2932 24.293Z" fill="#0032A0"/>
<path fill-rule="evenodd" clip-rule="evenodd" d="M22.7071 24.293C23.0976 23.9025 23.0976 23.2694 22.7071 22.8788L20.1213 20.293C19.7308 19.9025 19.0976 19.9025 18.7071 20.293C18.3166 20.6836 18.3166 21.3167 18.7071 21.7073L21.2929 24.293C21.6834 24.6836 22.3166 24.6836 22.7071 24.293Z" fill="#0032A0"/>
<path fill-rule="evenodd" clip-rule="evenodd" d="M36.0002 19C35.4479 19 35.0002 18.4627 35.0002 17.8V14.2C35.0002 13.5373 35.4479 13 36.0002 13C36.5524 13 37.0002 13.5373 37.0002 14.2V17.8C37.0002 18.4627 36.5524 19 36.0002 19Z" fill="#0032A0"/>
</svg>
