<svg viewBox="0 0 24 24" fill="000000" xmlns="http://www.w3.org/2000/svg">
<g id="Filled=True">
<path id="Vector" fill-rule="evenodd" clip-rule="evenodd" d="M12 2C6.5 2 2 6.5 2 12C2 17.5 6.5 22 12 22C17.5 22 22 17.5 22 12C22 6.5 17.5 2 12 2ZM12 18C11.4 18 11 17.6 11 17C11 16.4 11.4 16 12 16C12.6 16 13 16.4 13 17C13 17.6 12.6 18 12 18ZM12 15C12.5523 15 12.9781 14.5288 13.2246 14.0345C13.4895 13.5035 13.954 13.0939 14.4281 12.6759C15.2013 11.9942 16 11.2899 16 10C16 7.8 14.2 6 12 6C10.1413 6 8.56804 7.28489 8.1247 9.01033C7.98726 9.54524 8.44772 10 9 10C9.55228 10 9.97995 9.52543 10.2462 9.04157C10.5871 8.42215 11.2466 8 12 8C13.1 8 14 8.9 14 10C14 10.883 13.4152 11.3372 12.762 11.8445C12.1088 12.3518 11.3872 12.9122 11.1136 14.0076C10.9797 14.5434 11.4477 15 12 15Z"/>
</g>
</svg>
