<svg viewBox="0 0 24 24" xmlns="http://www.w3.org/2000/svg">
<path d="M6.10006 12C6.10006 8.484 9.04564 5.62447 12.6661 5.62447C13.9576 5.62447 15.1625 5.99053 16.1782 6.62042C16.6243 6.89712 17.2153 6.87251 17.59 6.50476C17.6296 6.46589 17.6688 6.42748 17.7079 6.3893C18.1194 5.9867 18.0939 5.31872 17.6156 4.99832C16.2081 4.05547 14.5055 3.5 12.6661 3.5C7.83153 3.5 3.91248 7.30492 3.91248 12C3.91248 16.694 7.83153 20.5 12.6661 20.5C15.3613 20.5 17.6208 19.6742 19.4816 17.3903C19.8345 16.9571 19.7041 16.323 19.2364 16.0173L19.0969 15.926C18.6393 15.6269 18.0308 15.7567 17.6595 16.1579C16.4322 17.4839 14.6069 18.3755 12.6661 18.3755C9.04564 18.3755 6.10006 15.5149 6.10006 12Z"/>
</svg>
