<svg width="948" height="180" viewBox="0 0 948 180" fill="none" xmlns="http://www.w3.org/2000/svg">
<g clip-path="url(#clip0_80_2274)">
<path d="M440.166 38.2877C440.14 34.167 441.018 30.0908 442.739 26.3464C444.399 22.6848 446.73 19.3663 449.611 16.5621C452.475 13.7663 455.827 11.5202 459.501 9.93537C463.189 8.32988 467.169 7.50651 471.191 7.51696H472.478C473.108 7.4799 473.739 7.58637 474.323 7.82825C474.907 8.07013 475.428 8.44121 475.848 8.91357C476.696 10.0151 477.119 11.3851 477.039 12.7729V25.8006C477.097 27.3004 476.657 28.7773 475.787 30.0002C475.415 30.5288 474.919 30.9575 474.342 31.2485C473.765 31.5394 473.125 31.6838 472.479 31.6683H471.192C470.308 31.6614 469.433 31.8369 468.62 32.1841C467.813 32.5158 467.072 32.9888 466.431 33.5807C465.789 34.1702 465.265 34.8766 464.888 35.662C464.501 36.4825 464.306 37.3796 464.316 38.2863V46.1309H474.4C475.019 46.093 475.64 46.1862 476.22 46.4042C476.801 46.6222 477.329 46.9601 477.771 47.396C478.659 48.5278 479.085 49.9547 478.961 51.3883V63.873C479.09 65.4032 478.668 66.929 477.771 68.1755C477.345 68.6389 476.822 69.0019 476.239 69.2385C475.656 69.4751 475.028 69.5793 474.4 69.5435H464.316V118.458C464.366 119.195 464.243 119.933 463.958 120.615C463.674 121.296 463.234 121.902 462.675 122.384C461.68 123.232 460.418 123.703 459.111 123.715H445.246C444.555 123.745 443.866 123.623 443.227 123.357C442.588 123.092 442.016 122.689 441.549 122.179C440.627 121.164 440.131 119.833 440.164 118.462V69.5477H433.548C432.882 69.5747 432.219 69.4676 431.596 69.2325C430.973 68.9975 430.404 68.6394 429.923 68.1797C429.419 67.5897 429.038 66.9055 428.802 66.1668C428.566 65.4281 428.479 64.6498 428.546 63.8771V51.3925C428.447 50.701 428.506 49.9965 428.718 49.3311C428.931 48.6657 429.291 48.0569 429.773 47.5509C430.254 47.0449 430.844 46.6546 431.498 46.4094C432.152 46.1642 432.854 46.0704 433.549 46.1351H440.166V38.2877Z" fill="#3FA9F5"/>
<path d="M554.491 113.342C550.808 116.965 546.497 119.89 541.77 121.975C537.055 124.046 531.957 125.102 526.808 125.076C521.085 125.108 515.418 123.946 510.17 121.664C505.017 119.439 500.348 116.23 496.424 112.217C488.096 103.644 483.481 92.135 483.58 80.1829C483.568 76.2641 484.033 72.3584 484.965 68.5519C485.845 64.8938 487.16 61.3542 488.881 58.0086C490.563 54.7551 492.633 51.7179 495.048 48.9645C497.424 46.2545 500.157 43.8804 503.173 41.9075C506.197 39.9367 509.481 38.3972 512.93 37.3334C516.532 36.2327 520.279 35.683 524.045 35.7027C527.547 35.6935 531.031 36.1985 534.385 37.2019C537.695 38.1838 540.858 39.6055 543.789 41.4287C546.743 43.2626 549.453 45.4638 551.853 47.9797C554.276 50.5049 556.388 53.3121 558.142 56.3405C559.905 59.3864 561.277 62.6426 562.226 66.0319C563.192 69.4852 563.679 73.0549 563.672 76.6408C563.672 79.0032 563.637 80.9338 563.567 82.4328C563.575 83.6974 563.233 84.9395 562.579 86.022C561.849 86.9892 560.781 87.6454 559.589 87.8591C557.57 88.2574 555.513 88.4298 553.456 88.3734H507.211C507.529 90.9696 508.418 93.4629 509.814 95.6748C511.007 97.5105 512.547 99.096 514.348 100.342C516.007 101.482 517.852 102.325 519.8 102.835C521.581 103.313 523.416 103.564 525.26 103.584C526.859 103.579 528.453 103.406 530.016 103.068C531.621 102.737 533.198 102.283 534.733 101.709C536.179 101.172 537.575 100.51 538.905 99.7302C540.024 99.088 541.051 98.2965 541.957 97.3774C542.505 96.8831 543.095 96.4376 543.721 96.0464C544.192 95.7521 544.737 95.5961 545.293 95.5962C545.912 95.6159 546.508 95.8329 546.995 96.2153C547.704 96.7407 548.36 97.3339 548.954 97.9864L555.765 106.177C556.167 106.647 556.473 107.191 556.665 107.779C556.796 108.255 556.862 108.748 556.86 109.242C556.879 110.084 556.632 110.911 556.154 111.604C555.684 112.258 555.124 112.843 554.491 113.342ZM523.596 56.5076C521.922 56.5095 520.267 56.8707 518.745 57.5668C517.151 58.2923 515.671 59.2456 514.351 60.397C512.967 61.5895 511.726 62.9388 510.654 64.4179C509.603 65.8419 508.71 67.3755 507.99 68.9919H540.808C539.947 67.2902 538.972 65.6495 537.887 64.0808C536.866 62.6105 535.656 61.2806 534.288 60.1255C532.914 58.9764 531.349 58.0756 529.665 57.4638C527.712 56.7908 525.656 56.4672 523.59 56.5076H523.596Z" fill="#3FA9F5"/>
<path d="M577.456 16.5239C577.415 15.2205 577.772 13.9354 578.48 12.8401C578.894 12.3112 579.436 11.8963 580.055 11.634C580.674 11.3718 581.349 11.271 582.018 11.3409H597.741C598.215 11.3506 598.679 11.4793 599.091 11.7153C599.59 11.9847 600.036 12.3437 600.405 12.7745C600.834 13.2598 601.182 13.8102 601.438 14.4052C601.719 15.0755 601.861 15.7968 601.852 16.5239V118.459C601.904 119.173 601.809 119.89 601.572 120.566C601.335 121.241 600.962 121.861 600.476 122.386C599.511 123.284 598.229 123.763 596.912 123.717H582.012C581.359 123.785 580.7 123.7 580.086 123.469C579.472 123.238 578.92 122.867 578.474 122.386C577.715 121.223 577.356 119.845 577.451 118.459L577.456 16.5239Z" fill="#3FA9F5"/>
<path d="M613.918 42.3832C613.886 41.0383 614.291 39.7195 615.074 38.6254C615.5 38.0898 616.051 37.6671 616.679 37.3942C617.306 37.1213 617.991 37.0065 618.673 37.0602H633.379C633.954 37.0769 634.521 37.204 635.048 37.4347C635.666 37.7002 636.233 38.0713 636.724 38.5312C637.243 39.0192 637.686 39.5813 638.039 40.1993C638.41 40.8668 638.599 41.6198 638.587 42.3832V118.46C638.677 119.167 638.605 119.885 638.376 120.56C638.147 121.236 637.767 121.85 637.266 122.357C636.764 122.863 636.154 123.249 635.481 123.485C634.808 123.72 634.09 123.8 633.382 123.717H618.676C615.509 123.717 613.924 121.964 613.921 118.46L613.918 42.3832Z" fill="#3FA9F5"/>
<path d="M701.875 97.0341C702.378 96.6274 702.963 96.3347 703.59 96.1763C704.001 96.0787 704.421 96.0223 704.843 96.0077C705.534 95.9997 706.216 96.1637 706.828 96.4851C707.609 96.9994 708.248 97.7018 708.686 98.5277L715.885 110.066C716.113 110.462 716.316 110.872 716.494 111.294C716.659 111.634 716.756 112.003 716.779 112.38C716.819 113.322 716.486 114.241 715.853 114.939C715.246 115.593 714.569 116.178 713.834 116.683C710.297 119.287 706.416 121.388 702.302 122.925C698.058 124.505 693.563 125.302 689.035 125.278C681.563 125.298 674.239 123.206 667.905 119.243C664.798 117.286 661.95 114.947 659.427 112.279C656.856 109.569 654.655 106.531 652.882 103.243C651.053 99.8419 649.64 96.2324 648.674 92.4928C645.639 80.7553 647.142 68.305 652.882 57.6265C656.432 51.1083 661.608 45.6193 667.906 41.6929C671.023 39.7709 674.386 38.2802 677.902 37.2616C681.519 36.2091 685.269 35.682 689.036 35.6964C693.431 35.6518 697.805 36.3199 701.987 37.6748C705.995 39.014 709.76 40.9933 713.136 43.5355L712.942 43.3296C713.821 43.8685 714.586 44.5759 715.191 45.4109C715.767 46.2926 716.057 47.3302 716.021 48.3825C715.998 49.2769 715.732 50.1486 715.253 50.9042L709.535 61.2042C708.336 63.4351 706.88 64.5506 705.169 64.5506C704.683 64.5303 704.205 64.4258 703.756 64.2417C703.087 63.9761 702.458 63.6198 701.886 63.1826C700.003 61.866 697.968 60.7805 695.826 59.9493C693.623 59.0981 691.279 58.669 688.918 58.6843C686.333 58.6594 683.779 59.2541 681.472 60.4183C679.215 61.5666 677.233 63.1871 675.658 65.1697C674.009 67.2501 672.737 69.6038 671.9 72.1237C670.1 77.5615 670.1 83.4345 671.9 88.8722C672.721 91.3508 673.995 93.655 675.658 95.6675C677.257 97.5702 679.237 99.116 681.472 100.205C683.791 101.33 686.34 101.901 688.918 101.873C691.278 101.892 693.617 101.426 695.79 100.505C697.947 99.5892 699.989 98.4245 701.875 97.0341Z" fill="#3FA9F5"/>
<path d="M792.072 113.342C788.393 116.967 784.085 119.892 779.359 121.975C774.644 124.046 769.546 125.102 764.396 125.076C758.673 125.108 753.007 123.946 747.758 121.665C742.605 119.439 737.937 116.23 734.013 112.217C725.675 103.65 721.058 92.137 721.168 80.183C721.156 76.2641 721.622 72.3585 722.553 68.5519C723.433 64.8938 724.748 61.3543 726.47 58.0086C728.151 54.755 730.221 51.7178 732.636 48.9645C735.012 46.2545 737.745 43.8804 740.761 41.9075C743.785 39.9368 747.069 38.3973 750.518 37.3334C754.12 36.2326 757.868 35.6829 761.635 35.7027C765.136 35.6936 768.62 36.1985 771.975 37.2019C775.284 38.1857 778.447 39.6072 781.379 41.4287C784.333 43.2626 787.043 45.4639 789.443 47.9797C791.866 50.5049 793.977 53.312 795.732 56.3405C797.495 59.3864 798.867 62.6426 799.816 66.0319C800.779 69.4856 801.263 73.0553 801.254 76.6408C801.254 79.0037 801.226 80.9291 801.156 82.4328C801.164 83.6974 800.822 84.9395 800.169 86.0221C799.439 86.9892 798.371 87.6454 797.178 87.8591C795.16 88.2574 793.103 88.4298 791.046 88.3735H744.8C745.118 90.9696 746.007 93.463 747.403 95.6748C748.596 97.5082 750.133 99.0933 751.929 100.342C753.591 101.482 755.439 102.325 757.389 102.835C759.171 103.313 761.006 103.565 762.851 103.584C764.45 103.579 766.044 103.406 767.607 103.068C769.212 102.736 770.789 102.282 772.324 101.709C773.77 101.173 775.167 100.511 776.498 99.7302C777.617 99.088 778.644 98.2965 779.549 97.3774C780.097 96.8831 780.688 96.4376 781.313 96.0464C781.785 95.7521 782.33 95.5962 782.886 95.5962C783.504 95.6173 784.101 95.8341 784.588 96.2153C785.297 96.7408 785.953 97.3339 786.546 97.9864L793.357 106.177C793.759 106.647 794.065 107.191 794.258 107.779C794.385 108.256 794.45 108.748 794.452 109.242C794.472 110.084 794.225 110.911 793.746 111.604C793.275 112.261 792.711 112.846 792.072 113.342ZM761.186 56.5076C759.511 56.5093 757.856 56.8705 756.333 57.5668C754.737 58.2942 753.254 59.2473 751.93 60.397C750.549 61.5897 749.312 62.939 748.243 64.4179C747.192 65.8419 746.298 67.3755 745.578 68.992H778.396C777.536 67.2901 776.56 65.6494 775.476 64.0808C774.452 62.6125 773.242 61.2829 771.876 60.1255C770.502 58.9764 768.937 58.0756 767.253 57.4638C765.303 56.7918 763.25 56.4682 761.187 56.5076H761.186Z" fill="#3FA9F5"/>
<path d="M927.184 97.1C952.575 65.0926 944.821 56.9208 944.821 56.9208L944.793 56.9592C943.681 56.0501 927.573 54.9581 905.173 88.8808L888.393 113.353L902.447 128.067L927.184 97.1Z" fill="#3FA9F5"/>
<path d="M899.738 98.5809L866.788 71.3733C866.788 71.3733 876.086 62.6383 887.15 68.3459C887.15 68.3459 900.514 74.1665 921.035 81.4765C925.588 83.0875 899.738 98.5809 899.738 98.5809Z" fill="#3FA9F5"/>
<path d="M906.63 103.098L944.432 138.69C944.432 138.69 952.186 128.474 944.299 117.48C944.299 117.48 935.918 104.134 924.776 83.5148C922.306 78.945 906.63 103.098 906.63 103.098Z" fill="#3FA9F5"/>
<path d="M823.172 96.9681C824.283 98.1624 825.547 99.2055 826.93 100.07C828.167 100.858 829.465 101.544 830.812 102.123C831.871 102.586 832.966 102.962 834.086 103.248C834.718 103.422 835.365 103.535 836.018 103.585C836.83 103.585 837.876 103.557 839.133 103.492C840.361 103.423 841.577 103.215 842.758 102.873C843.871 102.557 844.895 101.986 845.75 101.205C846.179 100.778 846.512 100.265 846.728 99.6992C846.944 99.1337 847.037 98.529 847.002 97.9247C847.055 96.8655 846.807 95.8127 846.287 94.8886C845.769 94.0921 845.063 93.4351 844.231 92.9758C843.185 92.3944 842.079 91.9262 840.933 91.5792C839.618 91.1761 838.151 90.6997 836.53 90.1498C832.072 88.9813 827.793 87.2159 823.808 84.9012C820.77 83.1138 818.083 80.7889 815.876 78.04C813.984 75.6255 812.598 72.8545 811.801 69.8924C811.019 66.8844 810.631 63.7877 810.645 60.6797C810.597 57.1336 811.319 53.6192 812.762 50.3793C814.153 47.3096 816.219 44.5934 818.805 42.4321C821.572 40.1418 824.753 38.4045 828.175 37.3147C834.562 35.3587 841.328 34.9824 847.892 36.2182C850.226 36.6919 852.493 37.4505 854.642 38.4768C856.87 39.5581 858.971 40.8849 860.906 42.4321C863.081 44.1828 865.108 46.1105 866.966 48.1954C867.61 48.9033 868.007 49.8014 868.096 50.7541C868.048 51.2585 867.895 51.7471 867.646 52.1881C867.396 52.629 867.057 53.012 866.649 53.3125C864.981 54.7748 863.386 56.1999 861.868 57.615C860.35 59.0301 858.77 60.5954 857.151 62.3192C856.718 62.7325 856.186 63.0279 855.607 63.177C855.118 63.2918 854.607 63.2788 854.125 63.1397C853.638 63.0006 853.182 62.768 852.784 62.455C852.343 62.1299 851.954 61.7413 851.627 61.3016C850.29 59.6414 848.504 58.4009 846.481 57.7281C844.744 57.141 842.925 56.8281 841.091 56.8005C839.345 56.7173 837.611 57.1196 836.08 57.9626C835.479 58.3243 834.995 58.8519 834.686 59.482C834.378 60.1122 834.258 60.8179 834.341 61.5145C834.355 62.0355 834.473 62.5484 834.688 63.0231C834.903 63.4979 835.211 63.925 835.594 64.2791C836.412 64.9732 837.347 65.5159 838.355 65.8816C839.485 66.2947 840.644 66.6234 841.823 66.865C843.049 67.118 844.17 67.3994 845.202 67.7224C848.815 68.9463 852.353 70.383 855.797 72.025C858.864 73.4703 861.681 75.3941 864.143 77.7241C866.521 80.0025 868.394 82.7551 869.639 85.8033C871.033 89.4601 871.698 93.3536 871.598 97.2655C871.67 101.432 870.802 105.562 869.058 109.347C867.429 112.809 865.047 115.863 862.088 118.288C858.973 120.781 855.41 122.655 851.59 123.808C847.358 125.11 842.952 125.755 838.525 125.721C835.809 125.714 833.098 125.463 830.426 124.972C827.686 124.474 825.012 123.659 822.46 122.542C819.858 121.414 817.402 119.974 815.147 118.254C812.784 116.447 810.705 114.296 808.981 111.871C808.52 111.267 808.163 110.591 807.922 109.87C807.691 109.198 807.581 108.491 807.596 107.78C807.613 107.138 807.744 106.503 807.985 105.906C808.227 105.331 808.613 104.827 809.105 104.444L817.396 95.6431C817.723 95.2525 818.15 94.9578 818.632 94.7895C819.113 94.6212 819.631 94.5856 820.13 94.6869C821.292 95.2271 822.328 96.004 823.172 96.9681Z" fill="#3FA9F5"/>
<path d="M626.249 29.3315C633.873 29.3315 640.053 22.7654 640.053 14.6658C640.053 6.56608 633.873 0 626.249 0C618.626 0 612.446 6.56608 612.446 14.6658C612.446 22.7654 618.626 29.3315 626.249 29.3315Z" fill="#3FA9F5"/>
<path d="M27.299 124.663C25.2968 124.66 23.3028 124.412 21.3613 123.923C19.4064 123.437 17.5777 122.54 15.998 121.29C14.3156 119.917 12.9848 118.162 12.1158 116.172C11.016 113.551 10.5013 110.722 10.6077 107.882V48.7227H3.15339C2.32932 48.7821 1.50554 48.6031 0.78052 48.207C0.260214 47.8696 0.00439453 47.1105 0.00439453 45.9198V39.583C0.00439453 38.3923 0.260214 37.662 0.78052 37.3618C1.52186 37.0179 2.33801 36.8666 3.15339 36.9217H10.6077V22.3844C10.5555 21.7938 10.7119 21.2036 11.0495 20.7163C11.4776 20.2967 12.0109 20.0007 12.5932 19.8588C13.1077 19.7116 13.6337 19.6077 14.1655 19.5486C14.9603 19.4357 15.7894 19.2854 16.6442 19.1082C17.6676 18.9176 18.7792 18.7115 19.979 18.4895C20.5601 18.3842 21.1584 18.4295 21.7171 18.621C22.1147 18.7761 22.4435 19.0686 22.6434 19.4456C22.8471 19.839 22.97 20.2691 23.005 20.7107C23.0407 21.1895 23.0666 21.6939 23.0666 22.2385V36.9158H31.9946C32.7731 36.8474 33.547 37.0902 34.1473 37.5907C34.6736 38.2982 34.9131 39.1783 34.8177 40.0548V45.435C34.9049 46.3315 34.6669 47.2295 34.1473 47.9651C33.8617 48.235 33.5223 48.4416 33.1513 48.5709C32.7803 48.7003 32.3861 48.7496 31.9946 48.7158H23.0666V107.746C23.0002 108.349 23.0633 108.96 23.2519 109.537C23.4404 110.114 23.7502 110.644 24.1601 111.092C25.0129 111.774 26.088 112.114 27.1775 112.049C27.6263 112.035 28.0731 112.112 28.4909 112.277C28.9087 112.441 29.2885 112.689 29.6074 113.005C29.9416 113.357 30.2002 113.775 30.3672 114.231C30.5341 114.687 30.6059 115.173 30.5781 115.658V121.263C30.6016 121.716 30.534 122.169 30.3794 122.596C30.2247 123.023 29.9861 123.414 29.6776 123.747C29.3665 124.056 28.9943 124.298 28.5848 124.455C28.1752 124.613 27.7373 124.684 27.299 124.663Z" fill="white"/>
<path d="M111.01 112.177C107.388 116.14 103.024 119.353 98.165 121.634C93.1983 123.948 87.7775 125.123 82.2986 125.073C78.5466 125.082 74.8134 124.542 71.2177 123.471C67.6725 122.419 64.2907 120.879 61.169 118.897C58.0344 116.913 55.1623 114.542 52.621 111.84C50.0373 109.09 47.8056 106.03 45.9772 102.73C40.1967 92.2402 38.656 79.9342 41.6719 68.343C42.6503 64.6171 44.0969 61.0302 45.9772 57.6681C47.8152 54.3823 50.0461 51.3324 52.621 48.5856C55.1556 45.8868 58.0289 43.5271 61.169 41.5656C64.2874 39.61 67.6555 38.0846 71.1821 37.0303C74.7881 35.9498 78.5342 35.4097 82.2986 35.4278C87.7775 35.3784 93.1982 36.5534 98.165 38.8669C103.022 41.1481 107.385 44.3576 111.01 48.3141V39.992C111.01 37.9909 111.953 36.9901 113.833 36.9901H120.449C120.858 36.9307 121.275 36.9674 121.667 37.0969C122.059 37.2265 122.416 37.4453 122.709 37.7366C123.002 38.0279 123.222 38.3834 123.354 38.7748C123.486 39.1663 123.524 39.5831 123.467 39.992V120.708C123.486 121.109 123.422 121.51 123.279 121.886C123.137 122.262 122.918 122.604 122.638 122.892C122.378 123.157 122.068 123.367 121.725 123.509C121.383 123.65 121.015 123.721 120.644 123.717H113.966C113.564 123.735 113.163 123.664 112.791 123.51C112.419 123.356 112.085 123.123 111.813 122.826C111.281 122.251 110.993 121.492 111.01 120.708V112.177ZM111.654 80.1799C111.655 71.8942 108.592 63.901 103.054 57.7382C100.42 54.8372 97.2505 52.4723 93.7196 50.774C90.17 49.0543 86.2741 48.1692 82.33 48.1867C78.4078 48.1651 74.5339 49.0507 71.0106 50.774C67.5132 52.481 64.3771 54.8455 61.7737 57.7382C59.0883 60.7255 56.9769 64.1825 55.5456 67.9357C52.511 75.8072 52.511 84.5254 55.5456 92.3969C56.9866 96.1875 59.0961 99.689 61.7737 102.735C64.3632 105.686 67.5 108.109 71.0106 109.867C74.5207 111.636 78.3996 112.547 82.33 112.529C86.2823 112.543 90.183 111.632 93.7196 109.867C97.2639 108.117 100.434 105.695 103.054 102.735C105.747 99.6896 107.877 96.1888 109.343 92.3969C110.877 88.5077 111.661 84.3635 111.654 80.1827V80.1799Z" fill="white"/>
<path d="M153.436 46.2069C154.054 44.996 154.796 43.8526 155.65 42.795C156.665 41.5112 157.842 40.3647 159.152 39.3844C160.586 38.2991 162.162 37.4161 163.836 36.7601C165.676 36.0358 167.639 35.6761 169.615 35.701C171.707 35.687 173.798 35.7872 175.879 36.0011C177.678 36.1937 179.453 36.5606 181.181 37.0972C182.866 37.6286 184.49 38.339 186.024 39.2159C187.75 40.2056 189.394 41.3336 190.938 42.5891C191.541 43.0707 192.11 43.5936 192.64 44.1543C192.939 44.4494 193.176 44.8015 193.337 45.1897C193.497 45.5778 193.578 45.9942 193.575 46.4142C193.582 46.887 193.47 47.3539 193.249 47.7721L189.464 53.986C189.272 54.3027 189.01 54.5713 188.698 54.7712C188.386 54.9711 188.033 55.097 187.665 55.1394C187.309 55.1363 186.967 55.0031 186.703 54.7649C186.402 54.5205 186.032 54.2302 185.608 53.9071C183.241 52.1493 180.636 50.7387 177.87 49.7177C175.302 48.8182 172.598 48.3681 169.877 48.387C167.754 48.3827 165.653 48.823 163.711 49.6803C161.728 50.5476 159.944 51.8126 158.47 53.3969C156.883 55.1237 155.641 57.1377 154.81 59.3306C153.858 61.8703 153.391 64.5659 153.433 67.2778V120.701C153.433 122.702 152.492 123.703 150.61 123.703H143.923C143.519 123.756 143.107 123.715 142.722 123.582C142.336 123.449 141.986 123.229 141.7 122.938C141.414 122.646 141.2 122.293 141.074 121.905C140.949 121.516 140.915 121.104 140.976 120.701V40.0604C140.956 39.6589 141.019 39.2578 141.162 38.8819C141.305 38.5061 141.524 38.1638 141.805 37.8765C142.065 37.61 142.376 37.3993 142.72 37.2574C143.064 37.1156 143.434 37.0455 143.806 37.0515H150.484C150.886 37.0348 151.287 37.1061 151.659 37.2599C152.03 37.4137 152.364 37.6463 152.637 37.9421C153.169 38.5177 153.457 39.2769 153.44 40.0604L153.436 46.2069Z" fill="white"/>
<path d="M216.532 120.708C216.532 122.709 215.588 123.71 213.7 123.71H207.092C206.683 123.769 206.266 123.732 205.874 123.602C205.481 123.473 205.125 123.254 204.831 122.963C204.538 122.672 204.316 122.317 204.183 121.925C204.05 121.534 204.01 121.118 204.066 120.708V40.0679C204.047 39.6658 204.112 39.2642 204.256 38.8884C204.401 38.5125 204.621 38.1704 204.903 37.8837C205.162 37.6173 205.472 37.4068 205.815 37.2649C206.158 37.1231 206.526 37.053 206.897 37.0591H213.576C213.978 37.0423 214.378 37.1133 214.75 37.267C215.122 37.4208 215.456 37.6538 215.728 37.9496C216.257 38.5274 216.544 39.2852 216.532 40.0679V120.708Z" fill="white"/>
<path d="M259.578 5.06317C260.016 5.04176 260.452 5.11609 260.858 5.28128C261.263 5.44647 261.628 5.69845 261.925 6.01937C262.536 6.76679 262.843 7.71745 262.783 8.68102V14.473C262.798 15.3357 262.552 16.1827 262.077 16.9029C261.847 17.2485 261.53 17.5282 261.159 17.7139C260.788 17.8997 260.374 17.9851 259.96 17.9621C259.06 17.9935 258.17 18.1642 257.323 18.4681C256.224 18.8576 255.221 19.4743 254.377 20.2779C253.354 21.2593 252.533 22.4308 251.96 23.7268C251.241 25.4657 250.904 27.3385 250.972 29.2187V43.4744H259.574C260.434 43.4303 261.278 43.7265 261.921 44.299C262.244 44.6835 262.486 45.129 262.633 45.6087C262.78 46.0885 262.83 46.593 262.779 47.0922V51.3948C262.839 52.4305 262.536 53.4546 261.921 54.2906C261.641 54.6391 261.282 54.9165 260.874 55.1006C260.466 55.2846 260.021 55.37 259.574 55.3497H250.972V120.102C251.006 120.601 250.929 121.101 250.746 121.567C250.563 122.032 250.278 122.451 249.913 122.792C249.273 123.383 248.436 123.713 247.566 123.72H241.593C241.147 123.757 240.699 123.682 240.289 123.502C239.88 123.322 239.521 123.043 239.246 122.689C238.728 121.929 238.468 121.022 238.505 120.102V55.3497H232.42C231.964 55.3657 231.511 55.2787 231.094 55.0953C230.677 54.912 230.307 54.6369 230.011 54.2906C229.348 53.4763 229.014 52.4431 229.076 51.3948V47.0922C229.023 46.5869 229.079 46.0759 229.24 45.5941C229.401 45.1122 229.664 44.6705 230.011 44.299C230.683 43.7327 231.542 43.4386 232.42 43.4744H238.516V29.0787C238.499 25.9285 238.987 22.7959 239.962 19.8005C240.857 17.0186 242.263 14.428 244.108 12.1617C245.911 9.97781 248.165 8.20975 250.716 6.9787C253.484 5.66943 256.516 5.01396 259.578 5.06317Z" fill="white"/>
<path d="M339.875 112.178C336.257 116.144 331.892 119.357 327.03 121.635C322.064 123.949 316.643 125.124 311.164 125.074C307.415 125.083 303.685 124.543 300.092 123.471C296.543 122.421 293.158 120.882 290.034 118.897C286.902 116.913 284.033 114.542 281.495 111.84C274.8 104.674 270.549 95.5696 269.354 85.8355C268.159 76.1014 270.08 66.239 274.843 57.6657C276.687 54.3816 278.92 51.332 281.495 48.5832C284.027 45.8845 286.897 43.5248 290.034 41.5632C293.156 39.6075 296.527 38.0821 300.056 37.0279C303.659 35.9481 307.402 35.408 311.163 35.4254C316.642 35.375 322.063 36.5501 327.029 38.8646C331.888 41.1413 336.253 44.3513 339.874 48.3117V39.9924C339.874 37.9913 340.817 36.9905 342.705 36.9905H349.322C349.731 36.9311 350.148 36.9678 350.54 37.0973C350.932 37.2269 351.288 37.4458 351.581 37.737C351.874 38.0283 352.095 38.3838 352.227 38.7752C352.358 39.1667 352.397 39.5835 352.34 39.9924V120.708C352.359 121.111 352.294 121.512 352.15 121.888C352.006 122.264 351.785 122.606 351.502 122.892C351.244 123.159 350.933 123.37 350.59 123.511C350.247 123.653 349.879 123.723 349.508 123.717H342.83C342.428 123.734 342.027 123.663 341.655 123.509C341.284 123.356 340.95 123.123 340.677 122.827C340.149 122.249 339.861 121.491 339.874 120.708L339.875 112.178ZM340.52 80.1803C340.519 71.8966 337.459 63.9051 331.928 57.7386C329.29 54.8414 326.122 52.4772 322.594 50.7744C319.044 49.0547 315.148 48.1696 311.204 48.1871C307.279 48.1647 303.402 49.0502 299.876 50.7744C296.379 52.4814 293.242 54.8459 290.639 57.7386C287.959 60.7286 285.852 64.1851 284.42 67.9361C281.385 75.8076 281.385 84.5258 284.42 92.3973C285.861 96.1857 287.967 99.6867 290.639 102.735C293.229 105.687 296.365 108.109 299.876 109.868C303.389 111.637 307.271 112.549 311.204 112.529C315.156 112.544 319.057 111.632 322.594 109.868C326.135 108.113 329.304 105.691 331.928 102.735C334.618 99.6895 336.745 96.1888 338.208 92.3973C339.746 88.5092 340.53 84.3642 340.518 80.1831L340.52 80.1803Z" fill="white"/>
<path d="M364.736 106.79C364.553 106.242 364.4 105.686 364.277 105.122C364.193 104.759 364.206 104.381 364.312 104.025C364.423 103.731 364.598 103.466 364.824 103.248C365.124 102.973 365.461 102.743 365.825 102.563L371.93 99.5615C372.313 99.3247 372.761 99.2134 373.21 99.2436C373.659 99.2739 374.088 99.4441 374.436 99.7301C375.045 100.318 375.526 101.027 375.846 101.811C376.491 103.584 377.536 105.185 378.9 106.488C380.248 107.796 381.771 108.909 383.425 109.797C384.992 110.638 386.653 111.289 388.374 111.737C389.774 112.129 391.217 112.347 392.671 112.383C394.494 112.361 396.308 112.109 398.07 111.634C400.023 111.14 401.893 110.36 403.618 109.319C405.343 108.284 406.831 106.899 407.985 105.252C409.189 103.526 409.81 101.461 409.758 99.357C409.858 97.2483 409.274 95.1637 408.091 93.415C406.926 91.8805 405.446 90.6132 403.75 89.6984C401.863 88.6761 399.857 87.8894 397.778 87.3557C395.572 86.7553 393.375 86.1464 391.203 85.5089C387.64 84.5253 384.185 83.1879 380.889 81.5166C378.064 80.0894 375.468 78.2474 373.188 76.052C371.105 74.0412 369.454 71.6267 368.335 68.9562C367.187 66.1073 366.621 63.0578 366.668 59.9868C366.624 56.5625 367.304 53.1674 368.662 50.0238C369.94 47.0888 371.832 44.4615 374.211 42.3191C376.705 40.1108 379.61 38.4165 382.76 37.3333C386.3 36.1153 390.024 35.5162 393.767 35.5622C396.634 35.512 399.496 35.8337 402.281 36.5188C404.532 37.1028 406.67 38.0594 408.606 39.349C410.504 40.652 412.212 42.2135 413.679 43.9886C415.214 45.8354 416.823 47.9625 418.496 50.3711C418.943 51.0841 419.227 51.8878 419.325 52.7239C419.308 53.1176 419.193 53.5007 418.991 53.8392C418.789 54.1777 418.507 54.461 418.168 54.6635L413.158 58.6945C412.179 59.2849 411.429 59.4435 410.917 59.1719C410.257 58.7676 409.686 58.2324 409.24 57.5994C408.261 56.3711 407.299 55.1899 406.356 54.0559C405.413 52.9171 404.334 51.8976 403.144 51.0198C401.902 50.109 400.528 49.3946 399.069 48.9015C397.313 48.3467 395.478 48.0807 393.637 48.1139C391.798 48.1122 389.966 48.3422 388.185 48.7986C386.492 49.23 384.892 49.9706 383.468 50.9828C382.083 51.978 380.941 53.2721 380.125 54.7692C379.256 56.4454 378.825 58.3138 378.871 60.2011C378.873 61.8018 379.417 63.3548 380.415 64.6066C381.518 66.023 382.84 67.2541 384.331 68.253C385.96 69.3721 387.705 70.3114 389.536 71.0546C391.309 71.7905 393.131 72.404 394.988 72.8913C398.817 73.8107 402.55 75.091 406.137 76.715C409.276 78.1167 412.19 79.9772 414.782 82.2355C417.13 84.3217 419.03 86.8632 420.367 89.7057C421.733 92.7411 422.414 96.0402 422.361 99.3685C422.42 103.048 421.66 106.693 420.138 110.043C418.706 113.149 416.603 115.899 413.98 118.094C411.2 120.379 408.004 122.104 404.568 123.174C400.726 124.394 396.714 124.995 392.683 124.955C389.875 124.941 387.08 124.572 384.364 123.858C381.532 123.137 378.819 122.01 376.31 120.512C373.746 118.983 371.429 117.074 369.437 114.852C367.338 112.512 365.738 109.769 364.736 106.79Z" fill="white"/>
<path d="M210.291 24.8286C213.957 24.8286 216.929 21.671 216.929 17.7759C216.929 13.8808 213.957 10.7231 210.291 10.7231C206.624 10.7231 203.652 13.8808 203.652 17.7759C203.652 21.671 206.624 24.8286 210.291 24.8286Z" fill="white"/>
<path d="M804.487 179.998C768.483 179.998 733.016 165.418 708.908 135.798C708.56 135.353 708.307 134.842 708.163 134.296C708.019 133.75 707.988 133.18 708.072 132.621C708.155 132.063 708.351 131.527 708.648 131.047C708.945 130.566 709.337 130.152 709.8 129.827L720.06 122.929C720.795 122.438 721.687 122.24 722.561 122.375C723.434 122.51 724.226 122.969 724.777 123.66C744.789 147.148 774.521 158.384 804.485 158.384C842.543 158.384 881.282 126.714 898.698 97.397L915.556 111.155C895.794 144.43 852.029 179.998 804.487 179.998Z" fill="#3FA9F5"/>
</g>
<defs>
<clipPath id="clip0_80_2274">
<rect width="947.839" height="180" fill="white"/>
</clipPath>
</defs>
</svg>
