<svg width="216" height="81" viewBox="0 0 216 81" fill="none" xmlns="http://www.w3.org/2000/svg">
<path d="M196.8 32.1002C220.3 12.9002 215.6 5.60018 215.6 5.60018C214.9 4.80018 204.2 1.70018 184.5 17.0002C172.1 9.40018 164.4 4.20018 164.4 4.20018C159.2 0.400175 152.2 -0.0998205 146.5 2.90018L169.2 29.8002C149.2 50.1002 110.8 68.4002 78.2999 61.5002C52.7 56.0002 29.1999 41.6002 16.0999 19.0002C15.2999 17.6002 13.6999 17.0002 12.1999 17.6002L2.19995 21.3002C0.499949 21.9002 -0.400051 23.8002 0.199949 25.5002C0.299949 25.6002 0.299948 25.8002 0.399948 25.9002C15.8999 54.1002 43.6999 72.3002 74.4999 78.9002C114.2 87.4002 156.5 67.9002 179.5 45.5002L181.2 44.2002L201.2 71.3002C206.1 67.1002 207.6 60.1002 204.7 54.2002C204.8 54.2002 201.4 45.7002 196.8 32.1002Z"/>
</svg>
