<svg width="190" height="32" viewBox="0 0 190 32" fill="none" xmlns="http://www.w3.org/2000/svg">
<path fill-rule="evenodd" clip-rule="evenodd" d="M66.4211 14.516L64.4198 10.0964L62.4029 14.516H66.4211ZM62.558 6.96558H66.2828C66.9299 8.36838 72.2939 19.9028 72.2939 19.9028H68.8891L67.4879 16.8716H61.3072L59.9446 19.9052H56.5265L62.558 6.96558Z" fill="white"/>
<path fill-rule="evenodd" clip-rule="evenodd" d="M106.573 9.86255C104.415 9.86255 103.367 10.9953 103.367 10.9953L103.19 10.0593H100.277C100.392 10.4109 100.585 11.0613 100.585 11.6373V19.9053H103.465V14.1705C103.465 12.6357 104.415 11.8377 106.573 11.8377C107.759 11.8377 108.485 12.2289 108.485 14.1705V19.9053H111.354V14.1705C111.354 11.2449 110.407 9.86255 106.573 9.86255Z" fill="white"/>
<path fill-rule="evenodd" clip-rule="evenodd" d="M116.504 13.9909C116.672 12.7777 117.224 11.8477 119.496 11.8477C121.164 11.8477 121.762 12.9157 121.858 13.9909H116.504ZM119.496 9.89526C114.605 9.89526 113.516 12.1813 113.516 14.9833C113.516 17.8153 114.583 20.1097 119.735 20.1097C121.621 20.1097 123.383 19.7581 123.785 19.6753C123.862 19.1737 124.029 18.0853 124.083 17.7121C123.808 17.7397 121.575 18.1501 119.735 18.1501C117.341 18.1501 116.7 17.2393 116.504 15.9733H124.784V14.9833C124.784 11.4541 122.895 9.89526 119.496 9.89526Z" fill="white"/>
<path fill-rule="evenodd" clip-rule="evenodd" d="M22.4049 18.1652C19.9995 18.1652 19.2851 16.9712 19.2851 14.9924C19.2851 13.0496 19.9995 11.8616 22.4049 11.8616C24.7959 11.8616 25.5163 13.0496 25.5163 14.9924C25.5163 16.9712 24.7959 18.1652 22.4049 18.1652ZM22.4049 9.88745C18.8088 9.88745 16.4118 11.4643 16.4118 14.9923C16.4118 18.5623 18.8088 20.1187 22.4049 20.1187C25.9961 20.1187 28.3835 18.5623 28.3835 14.9923C28.3835 11.4643 25.9961 9.88745 22.4049 9.88745Z" fill="white"/>
<path fill-rule="evenodd" clip-rule="evenodd" d="M51.5048 16.1577C51.5048 17.9829 49.7524 18.1425 48.148 18.1425C47.5936 18.1425 46.7192 18.0237 46.7192 16.9473C46.7192 16.2369 47.6886 15.7617 48.8672 15.7617H51.5048V16.1577ZM54.3732 13.0293C54.3732 11.0481 52.2468 9.86255 49.1078 9.86255C47.4913 9.86255 45.5045 10.4925 44.8213 10.7277C44.7564 11.1405 44.5519 12.4401 44.511 12.7125C45.1352 12.5745 47.5839 11.8377 49.1078 11.8377C50.6797 11.8377 51.5048 12.3729 51.5048 13.1469V13.9821C51.5048 13.9821 49.5636 13.7925 48.8672 13.7925C45.7342 13.7925 43.8375 14.9097 43.8375 16.9473C43.8375 19.5285 46.6915 20.0925 48.148 20.0925C50.112 20.0925 51.1403 19.5705 51.6226 19.1325L51.7886 19.9053H54.6679C54.6342 19.7517 54.3732 19.0617 54.3732 18.1425V13.0293Z" fill="white"/>
<path fill-rule="evenodd" clip-rule="evenodd" d="M8.39662 6.58595C11.7726 6.58115 13.8689 7.64555 15.0331 9.31955L12.018 10.4884C11.3673 9.56675 10.2764 8.96195 8.4351 8.95115H8.36054C6.55889 8.96075 5.48127 9.52715 4.82218 10.4116C4.24609 11.1784 3.93218 12.166 3.93218 13.2868V13.4716H3.92978C3.94301 14.5408 4.26052 15.574 4.82218 16.3168C5.48127 17.194 6.55889 17.7736 8.36054 17.7772H8.4351C10.2416 17.7736 11.3288 17.1796 11.9855 16.2892L15.0331 17.4556C13.8629 19.1068 11.7437 20.1184 8.41225 20.1184H8.39662C5.43556 20.1184 3.4499 19.3384 2.23156 17.9944C1.12267 16.7872 0.558604 15.1828 0.562212 13.4068V13.2868C0.558604 11.5504 1.12387 9.93995 2.22916 8.73995C3.4475 7.39955 5.43436 6.58355 8.39662 6.58595Z" fill="white"/>
<path fill-rule="evenodd" clip-rule="evenodd" d="M91.9621 18.3421V6.97095H89.0864V18.3421C89.0864 19.0321 89.3306 19.7365 89.3919 19.9057H92.27C92.2279 19.7389 91.9621 19.0645 91.9621 18.3421Z" fill="white"/>
<path fill-rule="evenodd" clip-rule="evenodd" d="M82.3569 14.1516C82.3689 12.6372 83.4911 11.838 85.4707 11.838C85.8002 11.838 87.0956 12.0024 87.6512 12.0756C87.626 11.8224 87.4263 10.6008 87.3433 10.0968C86.9332 10.02 86.0143 9.86279 85.4707 9.86279C83.7845 9.86279 82.838 10.4808 82.3136 10.9488L82.0707 10.0596H79.1782C79.2311 10.2588 79.4764 10.9296 79.4812 11.6124V19.9032H82.3569V14.1516Z" fill="white"/>
<path fill-rule="evenodd" clip-rule="evenodd" d="M36.5262 18.1523C34.0871 18.1523 33.4148 16.7591 33.4148 14.9855C33.4665 13.0991 34.0871 11.8499 36.5262 11.8499C38.7343 11.8499 39.1637 13.2371 39.1637 14.9855C39.1637 16.7591 38.7343 18.1523 36.5262 18.1523ZM36.5262 9.87354C34.733 9.87354 33.3438 10.9247 33.3438 10.9247C33.3438 10.9247 33.1899 10.3427 33.1261 10.0739H30.2336C30.3371 10.4291 30.5415 11.1143 30.5415 11.8499V23.0399H33.4148V19.1423C33.9933 19.5635 35.0661 20.1119 36.5262 20.1119C41.3454 20.1119 42.0406 17.8151 42.0406 14.9855C42.0406 12.1835 41.3454 9.87354 36.5262 9.87354Z" fill="white"/>
<path fill-rule="evenodd" clip-rule="evenodd" d="M135.147 10.392V12.6192C134.585 12.3168 133.998 12.084 133.39 11.9316C132.774 11.7768 132.162 11.7 131.551 11.7C130.869 11.7 130.353 11.784 130 11.9508C129.658 12.1128 129.478 12.3636 129.478 12.6888C129.478 13.1544 130.228 13.5288 131.714 13.8204L131.827 13.8444L132.709 14.0148C133.83 14.2368 134.646 14.592 135.162 15.0804C135.684 15.5796 135.938 16.2396 135.938 17.0712C135.938 18.0852 135.544 18.846 134.752 19.344C133.967 19.8468 132.774 20.0952 131.186 20.0952C130.484 20.0952 129.757 20.0472 129.018 19.95C128.285 19.842 127.534 19.6968 126.777 19.4904V17.2452C127.452 17.5728 128.14 17.8152 128.84 17.9856C129.537 18.1596 130.216 18.246 130.871 18.246C131.586 18.246 132.13 18.1536 132.501 17.9796C132.866 17.8008 133.056 17.55 133.056 17.2128C133.056 16.8912 132.921 16.6404 132.664 16.4604C132.403 16.2816 131.774 16.1076 130.797 15.9072L129.946 15.7452C128.781 15.5352 127.926 15.1848 127.393 14.7156C126.859 14.2392 126.588 13.6176 126.588 12.828C126.588 11.8824 126.994 11.1564 127.808 10.6404C128.627 10.1088 129.769 9.85083 131.245 9.85083C131.907 9.85083 132.566 9.89523 133.234 9.98163C133.89 10.0728 134.529 10.2108 135.147 10.392Z" fill="white"/>
<path fill-rule="evenodd" clip-rule="evenodd" d="M96.2702 9.29773C96.8908 9.29773 97.3201 9.21853 97.5499 9.04933C97.7772 8.87533 97.8938 8.57293 97.8938 8.12173C97.8938 7.69573 97.782 7.39213 97.5643 7.22293C97.3358 7.05493 96.9172 6.96973 96.2942 6.96973C95.6616 6.96973 95.2371 7.05973 95.0061 7.23373C94.7788 7.40893 94.6706 7.71973 94.6706 8.16613C94.6706 8.59933 94.774 8.88973 94.9905 9.05533C95.2166 9.21853 95.6412 9.29773 96.2702 9.29773ZM97.7111 18.3421V10.0549H94.8415V18.3421C94.8415 19.0729 95.1121 19.8025 95.1518 19.9057H98.0202C97.9685 19.7233 97.7111 19.0453 97.7111 18.3421Z" fill="white"/>
<path fill-rule="evenodd" clip-rule="evenodd" d="M75.1596 9.29773C75.7826 9.29773 76.2059 9.21853 76.4393 9.04933C76.6654 8.87533 76.7881 8.57293 76.7881 8.12173C76.7881 7.69573 76.6678 7.39213 76.4525 7.22293C76.2264 7.05493 75.8054 6.96973 75.1861 6.96973C74.5522 6.96973 74.1265 7.05973 73.898 7.23373C73.6731 7.40893 73.56 7.71973 73.56 8.16613C73.56 8.59933 73.6682 8.88973 73.8859 9.05533C74.106 9.21853 74.5306 9.29773 75.1596 9.29773ZM76.6042 18.3421V10.0549H73.7309V18.3421C73.7309 19.0729 74.0051 19.8025 74.0448 19.9057H76.9096C76.8579 19.7233 76.6042 19.0453 76.6042 18.3421Z" fill="white"/>
<path fill-rule="evenodd" clip-rule="evenodd" d="M175.404 27.8887H175.113V27.4195H175.58C175.778 27.4195 176.025 27.4531 176.025 27.6451C176.025 27.9331 175.63 27.8887 175.404 27.8887ZM176.275 27.6451C176.275 27.2539 175.959 27.1663 175.634 27.1663H174.862V28.9879H175.113V28.1563H175.404L175.949 28.9879H176.252L175.707 28.1563C176.03 28.1443 176.275 28.0111 176.275 27.6451Z" fill="white"/>
<path fill-rule="evenodd" clip-rule="evenodd" d="M175.465 29.4802C174.721 29.4802 174.062 28.873 174.062 28.0954C174.062 27.307 174.721 26.6914 175.465 26.6914C176.22 26.6914 176.873 27.307 176.873 28.0954C176.873 28.873 176.22 29.4802 175.465 29.4802ZM175.465 26.4634C174.549 26.4634 173.809 27.1618 173.809 28.0954C173.809 29.0182 174.549 29.7382 175.465 29.7382C176.391 29.7382 177.127 29.0182 177.127 28.0954C177.127 27.1618 176.391 26.4634 175.465 26.4634Z" fill="white"/>
<path fill-rule="evenodd" clip-rule="evenodd" d="M140.897 13.1248V14.0584C144.064 12.826 147.258 12.0748 150.324 11.6308C147.499 11.5576 144.177 12.0376 140.897 13.1248Z" fill="white"/>
<path fill-rule="evenodd" clip-rule="evenodd" d="M158.209 14.0986C157.462 13.5586 156.679 13.0654 155.668 12.6514C156.006 12.6298 156.356 12.5758 156.753 12.5554C157.384 12.973 158.233 13.6366 158.736 14.269L158.209 14.0986ZM151.249 10.2144C150.471 9.92155 149.551 9.72595 148.637 9.59635C149.033 9.50875 149.42 9.43315 149.861 9.37915C150.502 9.55435 151.349 9.85795 152.157 10.356L151.249 10.2144ZM140.896 8.2091C141.749 8.1839 142.725 8.46829 143.781 8.60749L141.925 8.84509C141.608 8.85829 141.254 8.88709 140.896 8.92189V9.33949C142.241 9.08869 143.712 8.92549 145.076 8.91349C157.026 6.06109 166.925 8.74669 166.925 8.74669C164.801 8.26189 152.967 6.64669 140.896 11.3903V12.1103C142.689 11.5043 144.582 11.0363 146.393 10.8215C149.078 10.4903 151.575 10.6379 153.678 11.2331C162.51 10.6007 168.911 12.4943 168.911 12.4943C166.508 12.1019 153.613 10.3307 140.896 16.1495V16.7279C144.417 15.0443 148.109 14.0735 151.257 13.8659C154.447 13.6943 157.301 14.1491 159.447 15.4259C164.507 15.3479 168.363 16.0031 170.518 16.5275V0.191895H140.896V8.2091Z" fill="white"/>
<path fill-rule="evenodd" clip-rule="evenodd" d="M140.897 17.9203V19.7251C146.1 17.1943 151.404 15.9919 156.025 15.5935C151.803 14.8471 146.392 15.6163 140.897 17.9203Z" fill="white"/>
<path fill-rule="evenodd" clip-rule="evenodd" d="M163.633 20.0705C162.736 18.7457 161.6 17.7449 160.023 16.9781C160.494 16.9217 161.087 16.9049 161.53 16.8845C161.687 17.0009 161.838 17.1461 161.98 17.3225C162.034 17.4005 163.791 19.1321 164.38 20.8949L163.633 20.0705ZM140.897 22.1046V22.8546C141.255 22.6506 141.613 22.4562 141.95 22.275C144.611 20.8434 147.271 19.8462 149.929 19.239C152.445 18.639 154.909 18.4266 157.162 18.627C161.42 19.0098 164.479 20.871 165.952 24.0846C165.965 24.1086 167.018 26.469 167.119 28.695L166.608 27.4206C166.473 26.7846 166.299 26.1306 165.965 25.545C164.875 23.4234 162.748 21.9006 159.88 21.0078C157.275 20.1846 153.854 20.1486 150.305 20.8434C147.155 21.441 143.949 22.6314 140.897 24.1434V29.7402H141.193C143.024 28.3782 144.999 27.3798 147.052 26.565C152.433 24.249 157.667 23.5482 161.595 24.591C164.479 25.4166 166.363 27.1206 167.131 29.7402H170.519V16.7646C165.672 16.2126 152.755 15.3186 140.897 22.1046Z" fill="white"/>
<path fill-rule="evenodd" clip-rule="evenodd" d="M161.025 26.6723C158.454 25.9907 155.498 25.9499 152.22 26.5571C149.295 27.0923 146.229 28.0859 143.281 29.7407H165.778C164.73 28.2119 163.062 27.2327 161.025 26.6723Z" fill="white"/>
</svg>
