<svg viewBox="0 0 203 41" fill="none" xmlns="http://www.w3.org/2000/svg">
<path fill-rule="evenodd" clip-rule="evenodd" d="M130.642 2.2231C124.055 0.471101 114.947 1.7291 105.599 5.5461C93.6754 10.4171 84.9304 20.1381 84.9304 20.1381C88.3404 17.0111 92.3194 14.1671 96.6734 11.7671C102.448 8.5631 108.606 6.3081 114.474 5.2321C120.17 4.1821 125.469 4.2631 129.792 5.4701C134.208 6.6861 137.448 9.0861 139.315 12.3271C141.264 15.7071 140.768 20.1381 140.768 20.1381C141.568 15.9161 141.146 13.9121 141.146 13.9121C140.367 7.8861 136.741 3.8451 130.642 2.2231ZM140.774 34.4682L149.961 20.1382H154.161V38.8322H149.984V27.7662L142.9 38.8322H138.878L131.722 27.7372V38.8322H127.566V20.1382H131.708L140.774 34.4682ZM179.419 24.3406C172.347 24.3406 170.767 27.6656 170.767 31.7186C170.767 35.8196 172.314 39.1426 179.766 39.1426C182.488 39.1426 185.033 38.6346 185.615 38.5156L185.62 38.48L185.622 38.4683C185.735 37.7239 185.967 36.1971 186.049 35.6666C185.981 35.6742 185.828 35.6982 185.608 35.7326L185.608 35.7327L185.608 35.7327C184.555 35.898 181.965 36.3046 179.766 36.3046C176.302 36.3046 175.378 34.9836 175.094 33.1516H187.06V31.7186C187.06 26.6066 184.329 24.3406 179.419 24.3406ZM179.419 27.1726C176.136 27.1726 175.337 28.5246 175.094 30.2776H182.831C182.693 28.7236 181.832 27.1726 179.419 27.1726ZM168.678 36.5842V20.1382H164.522V36.5842C164.522 37.5832 164.872 38.6002 164.96 38.8452H169.121C169.11 38.8022 169.089 38.736 169.062 38.6502L169.062 38.6501C168.936 38.2545 168.678 37.4437 168.678 36.5842ZM201.246 28.2942V25.0642C200.35 24.8012 199.425 24.6072 198.482 24.4692C197.516 24.3402 196.562 24.2762 195.605 24.2762C193.471 24.2762 191.822 24.6632 190.636 25.4292C189.458 26.1692 188.875 27.2232 188.875 28.5942C188.875 29.7392 189.27 30.6402 190.038 31.3292C190.809 32.0072 192.043 32.5152 193.73 32.8202L194.958 33.0562C196.37 33.3482 197.278 33.5972 197.656 33.8562C198.028 34.1192 198.223 34.4812 198.223 34.9422C198.223 35.4312 197.948 35.7972 197.422 36.0582C196.885 36.3082 196.098 36.4462 195.071 36.4462C194.118 36.4462 193.14 36.3182 192.13 36.0652C191.117 35.8192 190.123 35.4682 189.151 34.9902V38.2452C190.24 38.5472 191.329 38.7562 192.389 38.9092C193.456 39.0542 194.508 39.1262 195.522 39.1262C197.82 39.1262 199.542 38.7622 200.675 38.0322C201.821 37.3102 202.388 36.2082 202.388 34.7422C202.388 33.5402 202.022 32.5802 201.267 31.8612C200.522 31.1542 199.343 30.6362 197.728 30.3102L196.446 30.0712L196.284 30.0342C194.135 29.6092 193.058 29.0652 193.058 28.3952C193.058 27.9172 193.31 27.5602 193.803 27.3232C194.317 27.0842 195.071 26.9602 196.045 26.9602C196.928 26.9602 197.82 27.0762 198.708 27.2972C199.586 27.5172 200.436 27.8542 201.246 28.2942ZM159.33 23.486C160.228 23.486 160.84 23.364 161.179 23.121C161.504 22.873 161.683 22.431 161.683 21.782C161.683 21.165 161.511 20.72 161.197 20.477C160.866 20.235 160.261 20.105 159.367 20.105C158.45 20.105 157.83 20.238 157.506 20.493C157.182 20.745 157.017 21.194 157.017 21.845C157.017 22.473 157.171 22.894 157.484 23.129C157.805 23.364 158.413 23.486 159.33 23.486ZM161.411 24.58V36.584C161.411 37.4437 161.678 38.2811 161.803 38.676C161.826 38.7478 161.844 38.805 161.855 38.845H157.714C157.654 38.704 157.265 37.641 157.265 36.584V24.58H161.411Z" fill="#CB9938"/>
<path fill-rule="evenodd" clip-rule="evenodd" d="M12.0613 19.552C16.9373 19.548 19.9683 21.092 21.6483 23.517L17.2933 25.207C16.3503 23.87 14.7743 22.995 12.1163 22.98H12.0053C9.40331 22.992 7.84531 23.815 6.88731 25.095C6.06231 26.205 5.60431 27.639 5.60431 29.26V29.526H5.59931C5.61931 31.076 6.08231 32.569 6.88731 33.65C7.84531 34.918 9.40331 35.755 12.0053 35.765H12.1163C14.7243 35.755 16.2973 34.9 17.2443 33.611L21.6483 35.295C19.9613 37.692 16.8933 39.155 12.0823 39.155H12.0613C7.77931 39.155 4.91131 38.028 3.15031 36.077C1.54431 34.33 0.733307 32.002 0.742307 29.435V29.26C0.733307 26.739 1.54631 24.408 3.14631 22.671C4.90831 20.732 7.77831 19.548 12.0613 19.552ZM50.7194 24.2986C47.6024 24.2986 46.0914 25.9436 46.0914 25.9436L45.8294 24.5856H41.6184C41.7834 25.0946 42.0654 26.0356 42.0654 26.8696V38.8456H46.2244V30.5446C46.2244 28.3136 47.6024 27.1626 50.7194 27.1626C52.4304 27.1626 53.4794 27.7306 53.4794 30.5446V38.8456H57.6284V30.5446C57.6284 26.3016 56.2624 24.2986 50.7194 24.2986ZM109.201 34.7313C108.548 35.7533 107.365 36.3253 105.379 36.3253C101.9 36.3253 100.868 34.5973 100.868 31.7343C100.868 28.9183 101.9 27.1953 105.379 27.1953C107.224 27.1953 108.38 27.6963 109.054 28.5793L112.688 27.1933C111.224 25.2463 108.648 24.3303 105.379 24.3303C100.181 24.3303 96.7153 26.6173 96.7153 31.7343C96.7153 36.9023 100.181 39.1553 105.379 39.1553C108.734 39.1553 111.353 38.2093 112.795 36.1463L109.201 34.7313ZM64.7636 25.9436C64.7636 25.9436 66.2776 24.2986 69.3976 24.2986C74.9446 24.2986 76.3066 26.3016 76.3066 30.5446V38.8456H72.1606V30.5446C72.1606 27.7306 71.1126 27.1626 69.3976 27.1626C66.2776 27.1626 64.9066 28.3136 64.9066 30.5446V38.8456H60.7416V26.8696C60.7416 26.0356 60.4606 25.0946 60.2956 24.5856H64.5076L64.7636 25.9436ZM87.0137 24.3214C79.9377 24.3214 78.3657 27.6334 78.3657 31.6904C78.3657 35.7924 79.9097 39.1164 87.3557 39.1164C90.0827 39.1164 92.6267 38.6044 93.2067 38.4864C93.3187 37.7644 93.5587 36.1854 93.6377 35.6434C93.5665 35.6508 93.4025 35.6764 93.1657 35.7133C92.0945 35.8803 89.5349 36.2794 87.3557 36.2794C83.8967 36.2794 82.9647 34.9544 82.6877 33.1284H94.6577V31.6904C94.6577 26.5784 91.9227 24.3214 87.0137 24.3214ZM87.0137 27.1494C83.7287 27.1494 82.9317 28.4954 82.6877 30.2474H90.4207C90.2827 28.6894 89.4247 27.1494 87.0137 27.1494ZM31.3512 24.333C26.1532 24.333 22.6922 26.617 22.6922 31.734C22.6922 36.902 26.1532 39.155 31.3512 39.155C36.5392 39.155 39.9942 36.902 39.9942 31.734C39.9942 26.617 36.5392 24.333 31.3512 24.333ZM26.8422 31.734C26.8422 34.597 27.8692 36.325 31.3512 36.325C34.8122 36.325 35.8452 34.597 35.8452 31.734C35.8452 28.918 34.8122 27.195 31.3512 27.195C27.8692 27.195 26.8422 28.918 26.8422 31.734ZM116.954 20.1408V24.5588H113.881V27.6088H116.954V33.7408C116.954 37.0648 117.719 38.9228 121.286 38.9228C121.927 38.9228 123.925 38.7108 124.443 38.4678V35.7818C124.289 35.7922 124.136 35.8054 123.983 35.8186C123.65 35.8472 123.318 35.8758 122.981 35.8758C121.398 35.8758 121.095 35.3278 121.095 33.3138V27.6088H124.775V24.5588H121.095V20.1408H116.954Z" fill="white"/>
</svg>
