<svg width="33" height="32" viewBox="0 0 33 32" fill="none" xmlns="http://www.w3.org/2000/svg">
<g clip-path="url(#clip0_429_12549)">
<path fill-rule="evenodd" clip-rule="evenodd" d="M0.505432 14.0148V15.0264C3.93702 13.691 7.39858 12.8769 10.7207 12.3958C7.65924 12.3165 4.05953 12.8366 0.505432 14.0148Z" fill="white"/>
<path fill-rule="evenodd" clip-rule="evenodd" d="M19.2657 15.07C18.4564 14.4848 17.6079 13.9504 16.5119 13.5017C16.8781 13.4783 17.2574 13.4198 17.6874 13.3977C18.3717 13.8502 19.2918 14.5693 19.8366 15.2546L19.2657 15.07ZM11.7235 10.8606C10.8803 10.5433 9.88326 10.3314 8.89275 10.1909C9.32154 10.096 9.7412 10.0141 10.2195 9.95556C10.9142 10.1454 11.8317 10.4744 12.7075 11.0141L11.7235 10.8606ZM0.504761 8.68778C1.4288 8.66047 2.48578 8.96865 3.63007 9.1195L1.61908 9.37697C1.27631 9.39128 0.891841 9.42248 0.504761 9.46019V9.91272C1.96185 9.64095 3.55578 9.4641 5.03372 9.45109C17.9833 6.36011 28.7108 9.27034 28.7108 9.27034C26.4091 8.74499 13.5847 6.99469 0.504761 12.1351V12.9153C2.44668 12.2586 4.49807 11.7514 6.46084 11.5187C9.3711 11.1598 12.0768 11.3197 14.3549 11.9647C23.9263 11.2794 30.8625 13.3314 30.8625 13.3314C28.2585 12.9062 14.2845 10.9868 0.504761 17.2923V17.9191C4.31952 16.0947 8.32064 15.0427 11.7314 14.8177C15.189 14.6318 18.2818 15.1246 20.6068 16.5082C26.0898 16.4237 30.2682 17.1337 32.6037 17.7019V0H0.504761V8.68778Z" fill="white"/>
<path fill-rule="evenodd" clip-rule="evenodd" d="M0.505432 19.2112V21.167C6.1435 18.4245 11.8911 17.1215 16.8983 16.6898C12.3237 15.881 6.46021 16.7145 0.505432 19.2112Z" fill="white"/>
<path fill-rule="evenodd" clip-rule="evenodd" d="M25.1434 21.5416C24.1711 20.106 22.9395 19.0215 21.2309 18.1906C21.7418 18.1295 22.3843 18.1113 22.8639 18.0892C23.0346 18.2153 23.1975 18.3726 23.3513 18.5638C23.41 18.6483 25.3141 20.5247 25.9527 22.435L25.1434 21.5416ZM0.505798 23.7455V24.5583C0.892878 24.3372 1.28126 24.1265 1.64619 23.9302C4.53039 22.3788 7.41198 21.2982 10.2923 20.6402C13.0188 19.9901 15.6892 19.7599 18.1303 19.9771C22.7453 20.3919 26.0596 22.4087 27.6561 25.8911C27.6705 25.9171 28.8109 28.475 28.9203 30.8872L28.3664 29.5062C28.2205 28.817 28.0315 28.1083 27.6705 27.4737C26.4884 25.1746 24.1841 23.5245 21.0758 22.557C18.2528 21.6649 14.5462 21.6259 10.7002 22.3788C7.28686 23.0264 3.81227 24.3164 0.505798 25.9549V32.0198H0.82641C2.81003 30.5439 4.95005 29.462 7.17478 28.579C13.0057 26.0693 18.6777 25.3099 22.9343 26.4399C26.0596 27.3345 28.1019 29.1811 28.9334 32.0198H32.6048V17.9589C27.3525 17.3607 13.355 16.3919 0.505798 23.7455Z" fill="white"/>
<path fill-rule="evenodd" clip-rule="evenodd" d="M22.3167 28.6952C19.5316 27.9566 16.3281 27.9124 12.7753 28.5704C9.60567 29.1504 6.28356 30.2271 3.08917 32.0203H27.4674C26.3322 30.3636 24.5245 29.3025 22.3167 28.6952Z" fill="white"/>
</g>
<defs>
<clipPath id="clip0_429_12549">
<rect width="32" height="32" fill="white" transform="translate(0.504761)"/>
</clipPath>
</defs>
</svg>
