<svg viewBox="0 0 314 100" fill="none" xmlns="http://www.w3.org/2000/svg">
<path d="M25.1298 36.7698L15.9298 59.7698C15.7098 60.3098 15.1898 60.6598 14.6098 60.6598H11.2598C10.6798 60.6598 10.1598 60.3098 9.93983 59.7698L0.739826 36.7698C0.369826 35.8398 1.04983 34.8298 2.05983 34.8298H3.84983C4.43983 34.8298 4.95983 35.1898 5.16983 35.7398L12.9298 55.8598L20.6898 35.7398C20.8998 35.1898 21.4298 34.8298 22.0098 34.8298H23.7998C24.7998 34.8298 25.4898 35.8398 25.1198 36.7698H25.1298Z" fill="white"/>
<path d="M32.0997 34.8298H33.7597C34.5397 34.8298 35.1797 35.4598 35.1797 36.2498V59.2498C35.1797 60.0298 34.5497 60.6698 33.7597 60.6698H32.0997C31.3197 60.6698 30.6797 60.0398 30.6797 59.2498V36.2498C30.6797 35.4698 31.3097 34.8298 32.0997 34.8298Z" fill="white"/>
<path d="M70.11 36.2397V59.2397C70.11 60.0197 69.48 60.6597 68.69 60.6597H67.03C66.25 60.6597 65.61 60.0297 65.61 59.2397V56.2097C63.54 59.3597 60.24 61.3297 55.84 61.3297C48.66 61.3297 42.77 55.3897 42.77 47.7397C42.77 40.0897 48.66 34.1497 55.84 34.1497C60.23 34.1497 63.54 36.1097 65.61 39.2697V36.2397C65.61 35.4597 66.24 34.8197 67.03 34.8197H68.69C69.47 34.8197 70.11 35.4497 70.11 36.2397ZM65.61 47.7397C65.61 42.4697 61.63 38.4897 56.41 38.4897C51.19 38.4897 47.26 42.4697 47.26 47.7397C47.26 53.0097 51.24 56.9897 56.41 56.9897C61.58 56.9897 65.61 53.0097 65.61 47.7397Z" fill="white"/>
<path d="M80.7599 34.8298H82.4199C83.1999 34.8298 83.8399 35.4598 83.8399 36.2498V59.3898C83.8399 65.5398 80.8999 68.7798 75.3299 68.8898C74.5299 68.8998 73.8599 68.2698 73.8599 67.4698V65.9498C73.8599 65.1898 74.4599 64.5698 75.2199 64.5398C78.0099 64.4098 79.3299 62.8898 79.3299 59.3898V36.2498C79.3299 35.4698 79.9599 34.8298 80.7499 34.8298H80.7599Z" fill="white"/>
<path d="M118.51 36.2397V59.2397C118.51 60.0197 117.88 60.6597 117.09 60.6597H115.43C114.65 60.6597 114.01 60.0297 114.01 59.2397V56.2097C111.94 59.3597 108.64 61.3297 104.24 61.3297C97.0599 61.3297 91.1699 55.3897 91.1699 47.7397C91.1699 40.0897 97.0599 34.1497 104.24 34.1497C108.63 34.1497 111.94 36.1097 114.01 39.2697V36.2397C114.01 35.4597 114.64 34.8197 115.43 34.8197H117.09C117.87 34.8197 118.51 35.4497 118.51 36.2397ZM114.01 47.7397C114.01 42.4697 110.03 38.4897 104.81 38.4897C99.5899 38.4897 95.6599 42.4697 95.6599 47.7397C95.6599 53.0097 99.6399 56.9897 104.81 56.9897C109.98 56.9897 114.01 53.0097 114.01 47.7397Z" fill="white"/>
<path d="M13.0197 3.16983H8.37975V17.0798H5.66975V3.16983H0.989746V0.579834H13.0097V3.16983H13.0197Z" fill="white"/>
<path d="M27.0495 5.28974V17.0797H24.4995V15.3797C23.5995 16.6297 22.2095 17.3797 20.3695 17.3797C17.1595 17.3797 14.4995 14.6697 14.4995 11.1797C14.4995 7.68974 17.1595 4.97974 20.3695 4.97974C22.2095 4.97974 23.5995 5.72974 24.4995 6.95974V5.28974H27.0495ZM24.4995 11.1897C24.4995 8.99974 22.8995 7.41974 20.7695 7.41974C18.6395 7.41974 17.0395 8.99974 17.0395 11.1897C17.0395 13.3797 18.6395 14.9597 20.7695 14.9597C22.8995 14.9597 24.4995 13.3797 24.4995 11.1897Z" fill="white"/>
<path d="M38.6297 5.07983V7.83983C36.9597 7.71983 34.9997 8.49983 34.9997 11.1398V17.0798H32.4497V5.28983H34.9997V7.26983C35.7097 5.66983 37.1497 5.07983 38.6297 5.07983Z" fill="white"/>
<path d="M42.5898 1.89978C42.5898 0.999775 43.3198 0.269775 44.2198 0.269775C45.1198 0.269775 45.8498 0.999775 45.8498 1.89978C45.8498 2.79978 45.1198 3.52978 44.2198 3.52978C43.3198 3.52978 42.5898 2.77978 42.5898 1.89978ZM42.9398 5.28978H45.4898V17.0798H42.9398V5.28978Z" fill="white"/>
<path d="M54.2599 5.05977V5.29977H57.0399V7.74977H54.2599V17.0898H51.7099V7.73977H49.9199V5.28977H51.7099V5.04977C51.7099 1.86977 53.4999 0.0297722 57.0399 0.259772V2.70977C55.2499 2.54977 54.2599 3.22977 54.2599 5.03977V5.05977Z" fill="white"/>
<path d="M72.2995 5.28974V17.0797H69.7495V15.3797C68.8495 16.6297 67.4595 17.3797 65.6195 17.3797C62.4095 17.3797 59.7495 14.6697 59.7495 11.1797C59.7495 7.68974 62.4095 4.97974 65.6195 4.97974C67.4595 4.97974 68.8495 5.72974 69.7495 6.95974V5.28974H72.2995ZM69.7495 11.1897C69.7495 8.99974 68.1495 7.41974 66.0195 7.41974C63.8895 7.41974 62.2895 8.99974 62.2895 11.1897C62.2895 13.3797 63.8895 14.9597 66.0195 14.9597C68.1495 14.9597 69.7495 13.3797 69.7495 11.1897Z" fill="white"/>
<path d="M86.2596 13.7597C86.2596 16.1197 84.2096 17.3897 81.6596 17.3897C79.2996 17.3897 77.5996 16.3297 76.8496 14.6297L79.0396 13.3597C79.4196 14.4197 80.3596 15.0597 81.6596 15.0597C82.7896 15.0597 83.6596 14.6797 83.6596 13.7397C83.6596 11.6397 77.3196 12.8197 77.3196 8.59975C77.3196 6.37975 79.2296 4.98975 81.6296 4.98975C83.5596 4.98975 85.1696 5.88975 85.9896 7.43975L83.8396 8.63975C83.4196 7.71975 82.5896 7.29975 81.6196 7.29975C80.6496 7.29975 79.8996 7.69975 79.8996 8.54975C79.8996 10.6997 86.2396 9.39975 86.2396 13.7597H86.2596Z" fill="white"/>
<path d="M147.01 47.5004C147.01 55.2004 141.17 61.0904 134.14 61.0904C130.11 61.0904 127.06 59.4404 125.1 56.7504V69.3404C125.1 70.1204 124.47 70.7604 123.68 70.7604H120.93C120.15 70.7604 119.51 70.1304 119.51 69.3404V36.0004C119.51 35.2204 120.14 34.5804 120.93 34.5804H123.68C124.46 34.5804 125.1 35.2104 125.1 36.0004V38.3004C127.06 35.5604 130.11 33.9104 134.14 33.9104C141.17 33.9104 147.01 39.8504 147.01 47.5004ZM141.43 47.5004C141.43 42.6904 137.92 39.2304 133.27 39.2304C128.62 39.2304 125.11 42.6904 125.11 47.5004C125.11 52.3104 128.62 55.7704 133.27 55.7704C137.92 55.7704 141.43 52.3104 141.43 47.5004Z" fill="#00A3E0"/>
<path d="M176.83 35.9904V58.9904C176.83 59.7704 176.2 60.4104 175.41 60.4104H172.66C171.88 60.4104 171.24 59.7804 171.24 58.9904V56.6904C169.28 59.4304 166.23 61.0804 162.2 61.0804C155.17 61.0804 149.33 55.1404 149.33 47.4904C149.33 39.8404 155.17 33.9004 162.2 33.9004C166.23 33.9004 169.28 35.5504 171.24 38.2404V35.9904C171.24 35.2104 171.87 34.5704 172.66 34.5704H175.41C176.19 34.5704 176.83 35.2004 176.83 35.9904ZM171.25 47.4904C171.25 42.6804 167.74 39.2204 163.09 39.2204C158.44 39.2204 154.93 42.6804 154.93 47.4904C154.93 52.3004 158.44 55.7604 163.09 55.7604C167.74 55.7604 171.25 52.3004 171.25 47.4904Z" fill="#00A3E0"/>
<path d="M205.56 44.5504V58.9904C205.56 59.7804 204.92 60.4204 204.13 60.4204H201.41C200.62 60.4204 199.98 59.7804 199.98 58.9904V45.1204C199.98 41.1904 197.71 39.1304 194.19 39.1304C190.67 39.1304 187.63 41.3004 187.63 46.5704V58.9904C187.63 59.7804 186.99 60.4204 186.2 60.4204H183.48C182.69 60.4204 182.05 59.7804 182.05 58.9904V36.0104C182.05 35.2204 182.69 34.5804 183.48 34.5804H186.2C186.99 34.5804 187.63 35.2204 187.63 36.0104V37.8904C189.34 35.2004 192.13 33.9104 195.64 33.9104C201.43 33.9104 205.56 37.8404 205.56 44.5504Z" fill="#00A3E0"/>
<path d="M236.31 36.0104V58.9904C236.31 59.7804 235.67 60.4204 234.88 60.4204H232.16C231.37 60.4204 230.73 59.7804 230.73 58.9904V56.7004C228.77 59.4404 225.72 61.0904 221.69 61.0904C214.66 61.0904 208.82 55.1504 208.82 47.5004C208.82 39.8504 214.66 33.9104 221.69 33.9104C225.72 33.9104 228.77 35.5604 230.73 38.2504V36.0104C230.73 35.2204 231.37 34.5804 232.16 34.5804H234.88C235.67 34.5804 236.31 35.2204 236.31 36.0104ZM230.73 47.5004C230.73 42.6904 227.22 39.2304 222.57 39.2304C217.92 39.2304 214.41 42.6904 214.41 47.5004C214.41 52.3104 217.92 55.7704 222.57 55.7704C227.22 55.7704 230.73 52.3104 230.73 47.5004Z" fill="#00A3E0"/>
<path d="M279.51 44.4004V58.9904C279.51 59.7804 278.87 60.4204 278.08 60.4204H275.35C274.56 60.4204 273.92 59.7804 273.92 58.9904V44.7604C273.92 41.1404 271.96 39.1304 268.91 39.1304C265.6 39.1304 263.28 41.2504 263.28 45.9504V58.9904C263.28 59.7804 262.64 60.4204 261.85 60.4204H259.13C258.34 60.4204 257.7 59.7804 257.7 58.9904V44.7604C257.7 41.1404 255.89 39.1304 252.84 39.1304C249.79 39.1304 247.1 41.2504 247.1 45.9504V58.9904C247.1 59.7804 246.46 60.4204 245.67 60.4204H242.95C242.16 60.4204 241.52 59.7804 241.52 58.9904V36.0104C241.52 35.2204 242.16 34.5804 242.95 34.5804H245.67C246.46 34.5804 247.1 35.2204 247.1 36.0104V37.6804C248.75 35.1504 251.29 33.9104 254.49 33.9104C257.69 33.9104 260.33 35.4104 261.83 37.9904C263.54 35.3004 266.27 33.9104 269.74 33.9104C275.58 33.9104 279.51 37.9404 279.51 44.4004Z" fill="#00A3E0"/>
<path d="M310.26 36.0105V58.9905C310.26 59.7805 309.62 60.4205 308.83 60.4205H306.11C305.32 60.4205 304.68 59.7805 304.68 58.9905V56.7005C302.72 59.4405 299.67 61.0905 295.64 61.0905C288.61 61.0905 282.77 55.1505 282.77 47.5005C282.77 39.8505 288.61 33.9105 295.64 33.9105C299.67 33.9105 302.72 35.5605 304.68 38.2505V36.0105C304.68 35.2205 305.32 34.5805 306.11 34.5805H308.83C309.62 34.5805 310.26 35.2205 310.26 36.0105ZM304.68 47.5005C304.68 42.6905 301.17 39.2305 296.52 39.2305C291.87 39.2305 288.36 42.6905 288.36 47.5005C288.36 52.3105 291.87 55.7705 296.52 55.7705C301.17 55.7705 304.68 52.3105 304.68 47.5005ZM297.94 31.2205H295.77C294.66 31.2205 293.98 30.0205 294.54 29.0605L296.98 24.9405C297.24 24.5105 297.7 24.2405 298.21 24.2405H301.18C302.37 24.2405 303.04 25.6105 302.3 26.5505L299.07 30.6705C298.8 31.0105 298.39 31.2205 297.95 31.2205H297.94Z" fill="#00A3E0"/>
<path d="M303.49 88.4304C302.62 86.3304 300.92 82.2104 299.87 79.7904L302.36 76.2204L302.4 76.1704C302.61 75.9004 303.16 75.1604 303.27 73.5904C303.4 71.7604 302.69 71.1704 302.42 71.0204C302.18 70.8204 301.38 70.3504 299.71 71.1004C298.27 71.7504 297.77 72.5104 297.58 72.8004L295 76.4804C292.37 76.3804 287.9 76.2804 285.61 76.2204C284.72 76.2004 283.87 76.6304 283.36 77.3704L283.15 77.6704C283.07 77.7804 283.1 77.9204 283.21 77.9604L291.43 81.5304C284.63 88.8704 274.7 93.5304 263.64 93.5304C248.91 93.5304 236.16 85.3104 230.17 73.4204C229.89 72.8604 229.33 72.5004 228.7 72.5004H225.1C224.18 72.5004 223.56 73.4504 223.93 74.3004C230.51 89.1204 245.83 99.5404 263.64 99.5404C276.75 99.5404 288.49 93.8804 296.4 84.9904L302.72 91.3004C302.8 91.3804 302.94 91.3604 303.01 91.2504L303.22 90.9504C303.73 90.2104 303.82 89.2704 303.48 88.4404L303.49 88.4304Z" fill="#00A3E0"/>
</svg>
